ply
format ascii 1.0
comment Created by Blender 2.80 (sub 75) - www.blender.org, source file: ''
element vertex 271
property float x
property float y
property float z
property float nx
property float ny
property float nz
property float s
property float t
property uchar red
property uchar green
property uchar blue
property uchar alpha
element face 150
property list uchar uint vertex_indices
end_header
0.649241 -0.803644 0.000000 -1.000000 -0.000000 -0.000000 0.217050 0.660595 203 187 164 255
0.649241 -0.803644 0.721236 -1.000000 -0.000000 -0.000000 0.217050 0.509872 203 187 164 255
0.649241 -0.754979 0.721236 -1.000000 -0.000000 -0.000000 0.248050 0.509872 203 187 164 255
0.649241 -0.754979 0.000000 -1.000000 -0.000000 0.000000 0.248050 0.660595 203 187 164 255
0.649241 -0.754979 0.000000 0.000000 1.000000 0.000000 0.186050 0.660595 203 187 164 255
0.649241 -0.754979 0.721236 0.000000 1.000000 0.000000 0.186050 0.509872 203 187 164 255
0.697906 -0.754979 0.721236 0.000000 1.000000 0.000000 0.217050 0.509872 203 187 164 255
0.697906 -0.754979 0.000000 0.000000 1.000000 -0.000000 0.217050 0.660595 203 187 164 255
0.697906 -0.754979 0.000000 1.000000 -0.000000 0.000000 0.248050 0.660595 203 187 164 255
0.697906 -0.754979 0.721236 1.000000 -0.000000 0.000000 0.248050 0.509872 203 187 164 255
0.697906 -0.803644 0.721236 1.000000 -0.000000 0.000000 0.279050 0.509872 203 187 164 255
0.697906 -0.803644 0.000000 1.000000 -0.000000 0.000000 0.279050 0.660595 203 187 164 255
0.697906 -0.803644 0.000000 0.000000 -1.000000 0.000000 0.304184 0.660951 203 187 164 255
0.697906 -0.803644 0.721236 0.000000 -1.000000 0.000000 0.304184 0.510228 203 187 164 255
0.649241 -0.803644 0.721236 0.000000 -1.000000 0.000000 0.335184 0.510228 203 187 164 255
0.649241 -0.803644 0.000000 0.000000 -1.000000 0.000000 0.335184 0.660951 203 187 164 255
0.649241 -0.754979 0.000000 0.000000 0.000000 -1.000000 0.366184 0.691951 203 187 164 255
0.697906 -0.754979 0.000000 0.000000 0.000000 -1.000000 0.335184 0.691951 203 187 164 255
0.697906 -0.803644 0.000000 0.000000 0.000000 -1.000000 0.335184 0.660951 203 187 164 255
0.649241 -0.803644 0.000000 0.000000 0.000000 -1.000000 0.366184 0.660951 203 187 164 255
0.697906 -0.754979 0.721236 0.000000 0.000000 1.000000 0.490171 0.660951 203 187 164 255
0.649241 -0.754979 0.721236 0.000000 0.000000 1.000000 0.490171 0.691951 203 187 164 255
0.649241 -0.803644 0.721236 0.000000 0.000000 1.000000 0.459184 0.691951 203 187 164 255
0.697906 -0.803644 0.721236 0.000000 -0.000000 1.000000 0.459184 0.660951 203 187 164 255
0.955267 -0.803644 0.000000 -1.000000 -0.000000 -0.000000 0.459184 0.660951 203 187 164 255
0.955267 -0.803644 0.721236 -1.000000 -0.000000 -0.000000 0.459184 0.510228 203 187 164 255
0.955267 -0.754979 0.721236 -1.000000 -0.000000 -0.000000 0.490184 0.510228 203 187 164 255
0.955267 -0.754979 0.000000 -1.000000 -0.000000 0.000000 0.490184 0.660951 203 187 164 255
0.955267 -0.754979 0.000000 0.000000 1.000000 0.000000 0.335184 0.660951 203 187 164 255
0.955267 -0.754979 0.721236 0.000000 1.000000 0.000000 0.335184 0.510228 203 187 164 255
1.003932 -0.754979 0.721236 0.000000 1.000000 0.000000 0.366184 0.510228 203 187 164 255
1.003932 -0.754979 0.000000 0.000000 1.000000 -0.000000 0.366184 0.660951 203 187 164 255
1.003932 -0.754979 0.000000 1.000000 -0.000000 0.000000 0.490184 0.660951 203 187 164 255
1.003932 -0.754979 0.721236 1.000000 -0.000000 0.000000 0.490184 0.510228 203 187 164 255
1.003932 -0.803644 0.721236 1.000000 -0.000000 0.000000 0.521184 0.510228 203 187 164 255
1.003932 -0.803644 0.000000 1.000000 -0.000000 0.000000 0.521184 0.660951 203 187 164 255
1.003932 -0.803644 0.000000 0.000000 -1.000000 0.000000 0.521184 0.660951 203 187 164 255
1.003932 -0.803644 0.721236 0.000000 -1.000000 0.000000 0.521184 0.510228 203 187 164 255
0.955267 -0.803644 0.721236 0.000000 -1.000000 0.000000 0.552184 0.510228 203 187 164 255
0.955267 -0.803644 0.000000 0.000000 -1.000000 0.000000 0.552184 0.660951 203 187 164 255
0.955267 -0.754979 0.000000 0.000000 0.000000 -1.000000 0.397184 0.691951 203 187 164 255
1.003932 -0.754979 0.000000 0.000000 0.000000 -1.000000 0.366184 0.691951 203 187 164 255
1.003932 -0.803644 0.000000 0.000000 0.000000 -1.000000 0.366184 0.660951 203 187 164 255
0.955267 -0.803644 0.000000 0.000000 0.000000 -1.000000 0.397184 0.660951 203 187 164 255
1.003932 -0.754979 0.721236 0.000000 0.000000 1.000000 0.521171 0.660951 203 187 164 255
0.955267 -0.754979 0.721236 0.000000 0.000000 1.000000 0.521171 0.691951 203 187 164 255
0.955267 -0.803644 0.721236 0.000000 0.000000 1.000000 0.490184 0.691951 203 187 164 255
1.003932 -0.803644 0.721236 0.000000 -0.000000 1.000000 0.490184 0.660951 203 187 164 255
0.955267 -1.430252 0.000000 -1.000000 -0.000000 -0.000000 0.552184 0.660951 203 187 164 255
0.955267 -1.430252 0.721236 -1.000000 -0.000000 -0.000000 0.552184 0.510228 203 187 164 255
0.955267 -1.381588 0.721236 -1.000000 -0.000000 -0.000000 0.583184 0.510228 213 200 183 255
0.955267 -1.381588 0.000000 -1.000000 -0.000000 0.000000 0.583184 0.660951 206 191 170 255
0.955267 -1.381588 0.000000 0.000000 1.000000 0.000000 0.366184 0.660951 206 191 170 255
0.955267 -1.381588 0.721236 0.000000 1.000000 0.000000 0.366184 0.510228 213 200 183 255
1.003932 -1.381588 0.721236 0.000000 1.000000 0.000000 0.397184 0.510228 207 192 171 255
1.003932 -1.381588 0.000000 0.000000 1.000000 -0.000000 0.397184 0.660951 203 188 165 255
1.003932 -1.381588 0.000000 1.000000 -0.000000 0.000000 0.186050 0.811318 203 188 165 255
1.003932 -1.381588 0.721236 1.000000 -0.000000 0.000000 0.186050 0.660595 207 192 171 255
1.003932 -1.430252 0.721236 1.000000 -0.000000 0.000000 0.217050 0.660595 203 187 164 255
1.003932 -1.430252 0.000000 1.000000 -0.000000 0.000000 0.217050 0.811318 203 187 164 255
1.003932 -1.430252 0.000000 0.000000 -1.000000 0.000000 0.397184 0.660951 203 187 164 255
1.003932 -1.430252 0.721236 0.000000 -1.000000 0.000000 0.397184 0.510228 203 187 164 255
0.955267 -1.430252 0.721236 0.000000 -1.000000 0.000000 0.428184 0.510228 203 187 164 255
0.955267 -1.430252 0.000000 0.000000 -1.000000 0.000000 0.428184 0.660951 203 187 164 255
0.955267 -1.381588 0.000000 0.000000 0.000000 -1.000000 0.428184 0.691951 206 191 170 255
1.003932 -1.381588 0.000000 0.000000 0.000000 -1.000000 0.397184 0.691951 203 188 165 255
1.003932 -1.430252 0.000000 0.000000 0.000000 -1.000000 0.397184 0.660951 203 187 164 255
0.955267 -1.430252 0.000000 0.000000 0.000000 -1.000000 0.428184 0.660951 203 187 164 255
1.003932 -1.381588 0.721236 0.000000 0.000000 1.000000 0.552171 0.660951 207 192 171 255
0.955267 -1.381588 0.721236 0.000000 0.000000 1.000000 0.552171 0.691951 213 200 183 255
0.955267 -1.430252 0.721236 0.000000 0.000000 1.000000 0.521184 0.691951 203 187 164 255
1.003932 -1.430252 0.721236 0.000000 -0.000000 1.000000 0.521184 0.660951 203 187 164 255
0.649241 -1.430252 0.000000 -1.000000 -0.000000 -0.000000 0.217050 0.811318 203 187 164 255
0.649241 -1.430252 0.721236 -1.000000 -0.000000 -0.000000 0.217050 0.660595 203 187 164 255
0.649241 -1.381588 0.721236 -1.000000 -0.000000 -0.000000 0.248050 0.660595 203 187 164 255
0.649241 -1.381588 0.000000 -1.000000 -0.000000 0.000000 0.248050 0.811318 203 187 164 255
0.649241 -1.381588 0.000000 0.000000 1.000000 0.000000 0.248050 0.811318 203 187 164 255
0.649241 -1.381588 0.721236 0.000000 1.000000 0.000000 0.248050 0.660595 203 187 164 255
0.697906 -1.381588 0.721236 0.000000 1.000000 0.000000 0.279050 0.660595 204 189 166 255
0.697906 -1.381588 0.000000 0.000000 1.000000 -0.000000 0.279050 0.811318 203 187 164 255
0.697906 -1.381588 0.000000 1.000000 -0.000000 0.000000 0.304184 0.811674 203 187 164 255
0.697906 -1.381588 0.721236 1.000000 -0.000000 0.000000 0.304184 0.660951 204 189 166 255
0.697906 -1.430252 0.721236 1.000000 -0.000000 0.000000 0.335184 0.660951 203 187 164 255
0.697906 -1.430252 0.000000 1.000000 -0.000000 0.000000 0.335184 0.811674 203 187 164 255
0.697906 -1.430252 0.000000 0.000000 -1.000000 0.000000 0.428184 0.660951 203 187 164 255
0.697906 -1.430252 0.721236 0.000000 -1.000000 0.000000 0.428184 0.510228 203 187 164 255
0.649241 -1.430252 0.721236 0.000000 -1.000000 0.000000 0.459184 0.510228 203 187 164 255
0.649241 -1.430252 0.000000 0.000000 -1.000000 0.000000 0.459184 0.660951 203 187 164 255
0.649241 -1.381588 0.000000 0.000000 0.000000 -1.000000 0.459184 0.691951 203 187 164 255
0.697906 -1.381588 0.000000 0.000000 0.000000 -1.000000 0.428184 0.691951 203 187 164 255
0.697906 -1.430252 0.000000 0.000000 0.000000 -1.000000 0.428184 0.660951 203 187 164 255
0.649241 -1.430252 0.000000 0.000000 0.000000 -1.000000 0.459184 0.660951 203 187 164 255
0.697906 -1.381588 0.721236 0.000000 0.000000 1.000000 0.583171 0.660951 204 189 166 255
0.649241 -1.381588 0.721236 0.000000 0.000000 1.000000 0.583171 0.691951 203 187 164 255
0.649241 -1.430252 0.721236 0.000000 0.000000 1.000000 0.552184 0.691951 203 187 164 255
0.697906 -1.430252 0.721236 0.000000 -0.000000 1.000000 0.552184 0.660951 203 187 164 255
0.853373 -0.822762 0.997733 0.000000 -0.000000 1.000000 0.527273 0.826796 203 176 115 255
0.809713 -0.822762 0.997733 0.000000 -0.000000 1.000000 0.472727 0.826796 203 176 115 255
0.809713 -1.484539 0.997733 0.000000 -0.000000 1.000000 0.472727 0.000000 203 176 115 255
0.853373 -1.484539 0.997733 0.000000 -0.000000 1.000000 0.527273 0.000000 203 176 116 255
1.070302 -0.684127 0.721236 1.000000 -0.000000 0.000000 0.124761 -0.000047 203 176 115 255
1.070302 -0.684127 0.846162 1.000000 -0.000000 0.000000 0.175964 -0.000047 203 176 115 255
1.070302 -1.484539 0.846162 1.000000 -0.000000 0.000000 0.175964 0.999953 203 176 115 255
1.070302 -1.484539 0.721236 1.000000 -0.000000 0.000000 0.124761 0.999953 203 176 115 255
0.592785 -1.484539 0.721236 -1.000000 -0.000000 -0.000000 0.124761 0.999953 203 176 115 255
0.592785 -1.484539 0.846162 -1.000000 -0.000000 -0.000000 0.175964 0.999953 203 176 115 255
0.592785 -0.684127 0.846162 -1.000000 -0.000000 -0.000000 0.175964 -0.000047 203 176 115 255
0.592785 -0.684127 0.721236 -1.000000 -0.000000 0.000000 0.124761 -0.000047 203 176 115 255
0.592785 -0.684127 0.721236 0.000000 0.000000 -1.000000 0.201706 1.000000 203 176 115 255
1.070302 -0.684127 0.721236 0.000000 0.000000 -1.000000 0.798294 1.000000 203 176 115 255
1.070302 -1.484539 0.721236 0.000000 0.000000 -1.000000 0.798294 0.000000 203 176 115 255
0.592785 -1.484539 0.721236 0.000000 0.000000 -1.000000 0.201706 0.000000 203 176 115 255
0.659299 -0.684127 0.889695 0.722721 0.000000 -0.691140 0.284806 1.000000 203 176 115 255
0.694591 -0.684127 0.926600 0.722721 0.000000 -0.691140 0.328898 1.000000 203 176 115 255
0.694591 -1.469216 0.926600 0.722721 0.000000 -0.691140 0.328898 0.019145 203 176 115 255
0.659299 -1.469216 0.889695 0.722721 0.000000 -0.691140 0.284806 0.019145 203 176 115 255
0.809713 -1.484539 0.997733 -0.137659 -0.000000 0.990480 0.472727 0.000000 203 176 115 255
0.809713 -0.822762 0.997733 -0.137659 -0.000000 0.990480 0.472727 0.826796 203 176 115 255
0.726698 -0.822762 0.986195 -0.137659 -0.000000 0.990480 0.369012 0.826796 203 176 115 255
0.726698 -1.484539 0.986195 -0.137659 -0.000000 0.990480 0.369012 0.000000 203 176 115 255
0.726698 -1.484539 0.986195 -0.423033 -0.000000 0.906114 0.369012 0.000000 203 176 115 255
0.726698 -0.822762 0.986195 -0.423033 -0.000000 0.906114 0.369012 0.826796 203 176 115 255
0.656322 -0.684127 0.953339 -0.423033 -0.000000 0.906114 0.281086 1.000000 203 176 115 255
0.726698 -1.484539 0.986195 -0.423032 0.000000 0.906115 0.369012 0.000000 203 176 115 255
0.656322 -0.684127 0.953339 -0.423032 0.000000 0.906115 0.281086 1.000000 203 176 115 255
0.656322 -1.484539 0.953339 -0.423032 0.000000 0.906115 0.281086 0.000000 203 176 115 255
0.656322 -1.484539 0.953339 -0.722721 0.000000 0.691140 0.281086 0.000000 203 176 115 255
0.656322 -0.684127 0.953339 -0.722721 0.000000 0.691140 0.281086 1.000000 203 176 115 255
0.609298 -0.684127 0.904166 -0.722721 0.000000 0.691140 0.222336 1.000000 203 176 115 255
0.609298 -1.484539 0.904166 -0.722721 0.000000 0.691140 0.222336 0.000000 203 176 115 255
0.609298 -1.484539 0.904166 -0.961785 0.000000 0.273806 0.199738 0.999953 203 176 115 255
0.609298 -0.684127 0.904166 -0.961785 0.000000 0.273806 0.199738 -0.000047 203 176 115 255
0.592785 -0.684127 0.846162 -0.961785 0.000000 0.273806 0.175964 -0.000047 203 176 115 255
0.592785 -1.484539 0.846162 -0.961785 0.000000 0.273806 0.175964 0.999953 203 176 115 255
0.853373 -0.822762 0.997733 0.137659 -0.000000 0.990480 0.527273 0.826796 203 176 115 255
0.853373 -1.484539 0.997733 0.137659 -0.000000 0.990480 0.527273 0.000000 203 176 116 255
0.936388 -1.484539 0.986195 0.137659 -0.000000 0.990480 0.630988 0.000000 203 176 116 255
0.936388 -0.822762 0.986195 0.137659 -0.000000 0.990480 0.630988 0.826796 203 176 115 255
0.936388 -0.822762 0.986195 0.423032 -0.000000 0.906115 0.630988 0.826796 203 176 115 255
0.936388 -1.484539 0.986195 0.423032 -0.000000 0.906115 0.630988 0.000000 203 176 116 255
1.006765 -1.484539 0.953339 0.423032 -0.000000 0.906115 0.718914 0.000000 204 177 117 255
0.936388 -0.822762 0.986195 0.423033 0.000000 0.906114 0.630988 0.826796 203 176 115 255
1.006765 -1.484539 0.953339 0.423033 0.000000 0.906114 0.718914 0.000000 204 177 117 255
1.006765 -0.684127 0.953339 0.423033 0.000000 0.906114 0.718914 1.000000 203 176 115 255
1.006765 -0.684127 0.953339 0.722721 -0.000000 0.691140 0.718914 1.000000 203 176 115 255
1.006765 -1.484539 0.953339 0.722721 -0.000000 0.691140 0.718914 0.000000 204 177 117 255
1.053789 -1.484539 0.904166 0.722721 -0.000000 0.691140 0.777664 0.000000 203 176 115 255
1.053789 -0.684127 0.904166 0.722721 0.000000 0.691140 0.777664 1.000000 203 176 115 255
1.053789 -0.684127 0.904166 0.961785 -0.000000 0.273806 0.199738 -0.000047 203 176 115 255
1.053789 -1.484539 0.904166 0.961785 -0.000000 0.273806 0.199738 0.999953 203 176 115 255
1.070302 -1.484539 0.846162 0.961785 -0.000000 0.273806 0.175964 0.999953 203 176 115 255
1.070302 -0.684127 0.846162 0.961785 0.000000 0.273806 0.175964 -0.000047 203 176 115 255
1.070302 -1.484539 0.721236 0.000000 -1.000000 0.000000 0.798294 0.443337 203 176 115 255
1.070302 -1.484539 0.846162 0.000000 -1.000000 0.000000 0.798294 0.494540 203 176 115 255
1.053789 -1.484539 0.904166 0.000000 -1.000000 0.000000 0.777664 0.518313 203 176 115 255
1.006765 -1.484539 0.953339 0.000000 -1.000000 0.000000 0.718914 0.538468 204 177 117 255
0.936388 -1.484539 0.986195 0.000000 -1.000000 0.000000 0.630988 0.551934 203 176 116 255
0.853373 -1.484539 0.997733 0.000000 -1.000000 0.000000 0.527273 0.556663 203 176 116 255
0.809713 -1.484539 0.997733 0.000000 -1.000000 0.000000 0.472727 0.556663 203 176 115 255
0.726698 -1.484539 0.986195 0.000000 -1.000000 0.000000 0.369012 0.551934 203 176 115 255
0.656322 -1.484539 0.953339 0.000000 -1.000000 0.000000 0.281086 0.538468 203 176 115 255
0.609298 -1.484539 0.904166 0.000000 -1.000000 0.000000 0.222336 0.518313 203 176 115 255
0.592785 -1.484539 0.846162 0.000000 -1.000000 0.000000 0.201706 0.494540 203 176 115 255
0.592785 -1.484539 0.721236 0.000000 -1.000000 0.000000 0.201706 0.443337 203 176 115 255
0.645866 -0.684127 0.758324 0.000000 1.000000 0.000000 0.268023 0.458538 203 176 115 255
1.017220 -0.684127 0.758324 0.000000 1.000000 0.000000 0.731977 0.458538 203 176 115 255
1.070302 -0.684127 0.721236 0.000000 1.000000 0.000000 0.798294 0.443337 203 176 115 255
0.592785 -0.684127 0.721236 0.000000 1.000000 -0.000000 0.201706 0.443337 203 176 115 255
0.814942 -0.822762 0.960644 -0.000000 1.000000 0.000000 0.479259 0.541462 203 176 115 255
0.747410 -0.822762 0.951259 -0.000000 1.000000 0.000000 0.394887 0.537615 203 176 115 255
0.726698 -0.822762 0.986195 -0.000000 1.000000 0.000000 0.369012 0.551934 203 176 115 255
0.809713 -0.822762 0.997733 0.000000 1.000000 0.000000 0.472727 0.556663 203 176 115 255
0.747410 -0.822762 0.951259 0.538202 0.342061 0.770281 0.394887 0.826796 203 176 115 255
0.694591 -0.684127 0.926600 0.538202 0.342061 0.770281 0.328898 1.000000 203 176 115 255
0.656322 -0.684127 0.953339 0.538202 0.342061 0.770281 0.281086 1.000000 203 176 115 255
0.747410 -0.822762 0.951259 0.751322 0.486962 0.445402 0.394887 0.826796 203 176 115 255
0.656322 -0.684127 0.953339 0.751322 0.486962 0.445402 0.281086 1.000000 203 176 115 255
0.726698 -0.822762 0.986195 0.751322 0.486962 0.445402 0.369012 0.826796 203 176 115 255
0.694591 -0.684127 0.926600 -0.000000 1.000000 0.000000 0.328898 0.527508 203 176 115 255
0.659299 -0.684127 0.889695 -0.000000 1.000000 0.000000 0.284806 0.512382 203 176 115 255
0.609298 -0.684127 0.904166 -0.000000 1.000000 0.000000 0.222336 0.518313 203 176 115 255
0.656322 -0.684127 0.953339 -0.000000 1.000000 0.000000 0.281086 0.538468 203 176 115 255
0.645866 -0.684127 0.842509 -0.000000 1.000000 0.000000 0.268023 0.493043 203 176 115 255
0.592785 -0.684127 0.846162 -0.000000 1.000000 0.000000 0.201706 0.494540 203 176 115 255
0.915677 -0.822762 0.951259 0.000000 1.000000 0.000000 0.605113 0.537615 203 176 115 255
0.848145 -0.822762 0.960644 0.000000 1.000000 0.000000 0.520741 0.541462 203 176 115 255
0.853373 -0.822762 0.997733 0.000000 1.000000 0.000000 0.527273 0.556663 203 176 115 255
0.936388 -0.822762 0.986195 0.000000 1.000000 0.000000 0.630988 0.551934 203 176 115 255
0.968495 -0.684127 0.926600 -0.793535 0.386005 0.470427 0.671102 1.000000 203 176 115 255
0.915677 -0.822762 0.951259 -0.793535 0.386005 0.470427 0.605113 0.826796 203 176 115 255
0.936388 -0.822762 0.986195 -0.793535 0.386005 0.470427 0.630988 0.826796 203 176 115 255
0.968495 -0.684127 0.926600 -0.515334 0.436405 0.737551 0.671102 1.000000 203 176 115 255
0.936388 -0.822762 0.986195 -0.515334 0.436405 0.737551 0.630988 0.826796 203 176 115 255
1.006765 -0.684127 0.953339 -0.515334 0.436405 0.737551 0.718914 1.000000 203 176 115 255
1.003788 -0.684127 0.889695 0.000000 1.000000 0.000000 0.715194 0.512382 203 176 115 255
0.968495 -0.684127 0.926600 0.000000 1.000000 0.000000 0.671102 0.527508 203 176 115 255
1.006765 -0.684127 0.953339 0.000000 1.000000 0.000000 0.718914 0.538468 203 176 115 255
1.053789 -0.684127 0.904166 0.000000 1.000000 0.000000 0.777664 0.518313 203 176 115 255
1.017220 -0.684127 0.842509 0.000000 1.000000 0.000000 0.731977 0.493043 203 176 115 255
1.070302 -0.684127 0.846162 0.000000 1.000000 0.000000 0.798294 0.494540 203 176 115 255
0.645866 -1.469216 0.758324 0.000000 1.000000 0.000000 0.268023 0.458538 203 176 115 255
0.645866 -1.469216 0.842509 0.000000 1.000000 0.000000 0.268023 0.493043 203 176 115 255
0.659299 -1.469216 0.889695 0.000000 1.000000 0.000000 0.284806 0.512382 203 176 115 255
0.694591 -1.469216 0.926600 0.000000 1.000000 0.000000 0.328898 0.527508 203 176 115 255
0.747410 -1.469216 0.951259 0.000000 1.000000 0.000000 0.394887 0.537615 203 176 116 255
0.814942 -1.469216 0.960644 0.000000 1.000000 0.000000 0.479259 0.541462 207 182 127 255
0.848145 -1.469216 0.960644 0.000000 1.000000 0.000000 0.520741 0.541462 211 188 142 255
0.915677 -1.469216 0.951259 0.000000 1.000000 0.000000 0.605113 0.537615 227 215 191 255
0.968495 -1.469216 0.926600 0.000000 1.000000 0.000000 0.671102 0.527508 230 219 198 255
1.003788 -1.469216 0.889695 0.000000 1.000000 0.000000 0.715194 0.512382 203 177 117 255
1.017220 -1.469216 0.842509 0.000000 1.000000 0.000000 0.731977 0.493043 203 176 115 255
1.017220 -1.469216 0.758324 0.000000 1.000000 -0.000000 0.731977 0.458538 203 176 115 255
0.814942 -0.822762 0.960644 0.000000 0.000000 -1.000000 0.479259 0.826796 203 176 115 255
0.848145 -0.822762 0.960644 0.000000 0.000000 -1.000000 0.520741 0.826796 203 176 115 255
0.848145 -1.469216 0.960644 0.000000 0.000000 -1.000000 0.520741 0.019145 211 188 142 255
0.814942 -1.469216 0.960644 0.000000 0.000000 -1.000000 0.479259 0.019145 207 182 127 255
1.017220 -0.684127 0.758324 0.000000 -0.000000 1.000000 0.731977 1.000000 203 176 115 255
0.645866 -0.684127 0.758324 0.000000 -0.000000 1.000000 0.268023 1.000000 203 176 115 255
0.645866 -1.469216 0.758324 0.000000 -0.000000 1.000000 0.268023 0.019145 203 176 115 255
1.017220 -1.469216 0.758324 0.000000 -0.000000 1.000000 0.731977 0.019145 203 176 115 255
0.968495 -0.684127 0.926600 -0.722721 0.000000 -0.691140 0.671102 1.000000 203 176 115 255
1.003788 -0.684127 0.889695 -0.722721 0.000000 -0.691140 0.715194 1.000000 203 176 115 255
1.003788 -1.469216 0.889695 -0.722721 0.000000 -0.691140 0.715194 0.019145 203 177 117 255
0.968495 -1.469216 0.926600 -0.722721 0.000000 -0.691140 0.671102 0.019145 230 219 198 255
0.645866 -0.684127 0.842509 0.961785 0.000000 -0.273805 0.174467 -0.000047 203 176 115 255
0.659299 -0.684127 0.889695 0.961785 0.000000 -0.273805 0.193806 -0.000047 203 176 115 255
0.659299 -1.469216 0.889695 0.961785 0.000000 -0.273805 0.193806 0.980809 203 176 115 255
0.645866 -1.469216 0.842509 0.961785 0.000000 -0.273805 0.174467 0.980809 203 176 115 255
1.017220 -0.684127 0.842509 -1.000000 0.000000 0.000000 0.174467 -0.000047 203 176 115 255
1.017220 -0.684127 0.758324 -1.000000 0.000000 0.000000 0.139962 -0.000047 203 176 115 255
1.017220 -1.469216 0.758324 -1.000000 0.000000 0.000000 0.139962 0.980809 203 176 115 255
1.017220 -1.469216 0.842509 -1.000000 0.000000 0.000000 0.174467 0.980809 203 176 115 255
0.747410 -0.822762 0.951259 0.137660 0.000000 -0.990480 0.394887 0.826796 203 176 115 255
0.814942 -0.822762 0.960644 0.137660 0.000000 -0.990480 0.479259 0.826796 203 176 115 255
0.814942 -1.469216 0.960644 0.137660 0.000000 -0.990480 0.479259 0.019145 207 182 127 255
0.747410 -1.469216 0.951259 0.137660 0.000000 -0.990480 0.394887 0.019145 203 176 116 255
1.003788 -0.684127 0.889695 -0.961785 0.000000 -0.273805 0.193806 -0.000047 203 176 115 255
1.017220 -0.684127 0.842509 -0.961785 0.000000 -0.273805 0.174467 -0.000047 203 176 115 255
1.017220 -1.469216 0.842509 -0.961785 0.000000 -0.273805 0.174467 0.980809 203 176 115 255
1.003788 -1.469216 0.889695 -0.961785 0.000000 -0.273805 0.193806 0.980809 203 177 117 255
0.848145 -0.822762 0.960644 -0.137660 0.000000 -0.990480 0.520741 0.826796 203 176 115 255
0.915677 -0.822762 0.951259 -0.137660 0.000000 -0.990480 0.605113 0.826796 203 176 115 255
0.915677 -1.469216 0.951259 -0.137660 0.000000 -0.990480 0.605113 0.019145 227 215 191 255
0.848145 -1.469216 0.960644 -0.137660 0.000000 -0.990480 0.520741 0.019145 211 188 142 255
0.694591 -0.684127 0.926600 0.423032 0.000000 -0.906115 0.328898 1.000000 203 176 115 255
0.747410 -0.822762 0.951259 0.423032 0.000000 -0.906115 0.394887 0.826796 203 176 115 255
0.747410 -1.469216 0.951259 0.423032 0.000000 -0.906115 0.394887 0.019145 203 176 116 255
0.694591 -1.469216 0.926600 0.423032 0.000000 -0.906115 0.328898 0.019145 203 176 115 255
0.645866 -0.684127 0.758324 1.000000 -0.000000 0.000000 0.139962 -0.000047 203 176 115 255
0.645866 -0.684127 0.842509 1.000000 -0.000000 0.000000 0.174467 -0.000047 203 176 115 255
0.645866 -1.469216 0.842509 1.000000 -0.000000 0.000000 0.174467 0.980809 203 176 115 255
0.645866 -1.469216 0.758324 1.000000 -0.000000 0.000000 0.139962 0.980809 203 176 115 255
0.915677 -0.822762 0.951259 -0.423031 0.000000 -0.906115 0.605113 0.826796 203 176 115 255
0.968495 -0.684127 0.926600 -0.423031 0.000000 -0.906115 0.671102 1.000000 203 176 115 255
0.968495 -1.469216 0.926600 -0.423031 0.000000 -0.906115 0.671102 0.019145 230 219 198 255
0.915677 -1.469216 0.951259 -0.423031 0.000000 -0.906115 0.605113 0.019145 227 215 191 255
0.645866 -0.894567 0.754425 0.000000 1.000000 0.000000 0.989603 0.000555 203 82 23 255
0.645866 -0.894567 0.829058 0.000000 1.000000 0.000000 0.989602 0.965634 203 75 1 255
0.659299 -0.894567 0.870889 0.000000 1.000000 0.000000 0.954037 0.986595 203 75 1 255
0.694591 -0.894567 0.839598 0.000000 1.000000 0.000000 0.860598 0.970916 203 75 1 255
0.747410 -0.894567 0.872436 0.000000 1.000000 0.000000 0.720756 1.013942 203 75 3 255
0.814942 -0.894567 0.862717 0.000000 1.000000 0.000000 0.541959 0.982500 203 78 17 255
0.848145 -0.894567 0.880756 0.000000 1.000000 0.000000 0.454050 1.018111 204 81 24 255
0.915677 -0.894567 0.860531 0.000000 1.000000 0.000000 0.275254 0.981404 204 79 23 255
0.645866 -0.894567 0.754425 0.000000 -1.000000 0.000000 0.989603 0.000555 203 82 23 255
0.915677 -0.894567 0.860531 0.000000 -1.000000 0.000000 0.275254 0.981404 204 79 23 255
0.968495 -0.894567 0.903606 0.000000 -1.000000 0.000000 0.135412 1.002988 203 75 1 255
0.968495 -0.894567 0.903606 0.000000 1.000000 0.000000 0.135412 1.002988 203 75 1 255
1.003788 -0.894567 0.870889 0.000000 1.000000 0.000000 0.041972 0.986594 203 75 1 255
1.017220 -0.894567 0.829058 0.000000 1.000000 0.000000 0.006407 0.965634 203 75 1 255
1.017220 -0.894567 0.754425 0.000000 1.000000 -0.000000 0.006407 0.000555 203 76 7 255
3 0 1 2
3 0 2 3
3 4 5 6
3 4 6 7
3 8 9 10
3 8 10 11
3 12 13 14
3 12 14 15
3 16 17 18
3 16 18 19
3 20 21 22
3 20 22 23
3 24 25 26
3 24 26 27
3 28 29 30
3 28 30 31
3 32 33 34
3 32 34 35
3 36 37 38
3 36 38 39
3 40 41 42
3 40 42 43
3 44 45 46
3 44 46 47
3 48 49 50
3 48 50 51
3 52 53 54
3 52 54 55
3 56 57 58
3 56 58 59
3 60 61 62
3 60 62 63
3 64 65 66
3 64 66 67
3 68 69 70
3 68 70 71
3 72 73 74
3 72 74 75
3 76 77 78
3 76 78 79
3 80 81 82
3 80 82 83
3 84 85 86
3 84 86 87
3 88 89 90
3 88 90 91
3 92 93 94
3 92 94 95
3 96 97 98
3 96 98 99
3 100 101 102
3 100 102 103
3 104 105 106
3 104 106 107
3 108 109 110
3 108 110 111
3 112 113 114
3 112 114 115
3 116 117 118
3 116 118 119
3 120 121 122
3 123 124 125
3 126 127 128
3 126 128 129
3 130 131 132
3 130 132 133
3 134 135 136
3 134 136 137
3 138 139 140
3 141 142 143
3 144 145 146
3 144 146 147
3 148 149 150
3 148 150 151
3 152 153 154
3 152 154 155
3 152 155 156
3 152 156 157
3 152 157 158
3 152 158 159
3 152 159 160
3 152 160 161
3 152 161 162
3 152 162 163
3 164 165 166
3 164 166 167
3 168 169 170
3 168 170 171
3 172 173 174
3 175 176 177
3 178 179 180
3 178 180 181
3 179 182 183
3 179 183 180
3 184 185 186
3 184 186 187
3 188 189 190
3 191 192 193
3 194 195 196
3 194 196 197
3 198 194 197
3 198 197 199
3 182 164 167
3 182 167 183
3 185 168 171
3 185 171 186
3 165 198 199
3 165 199 166
3 200 201 202
3 200 202 203
3 200 203 204
3 200 204 205
3 200 205 206
3 200 206 207
3 200 207 208
3 200 208 209
3 200 209 210
3 200 210 211
3 212 213 214
3 212 214 215
3 216 217 218
3 216 218 219
3 220 221 222
3 220 222 223
3 224 225 226
3 224 226 227
3 228 229 230
3 228 230 231
3 232 233 234
3 232 234 235
3 236 237 238
3 236 238 239
3 240 241 242
3 240 242 243
3 244 245 246
3 244 246 247
3 248 249 250
3 248 250 251
3 252 253 254
3 252 254 255
3 256 257 258
3 256 258 259
3 256 259 260
3 256 260 261
3 256 261 262
3 256 262 263
3 264 265 266
3 256 267 268
3 256 268 269
3 256 269 270
