ply
format ascii 1.0
comment Created in Blender version 4.1.0
element vertex 576
property float x
property float y
property float z
property uchar red
property uchar green
property uchar blue
property uchar alpha
property float s
property float t
element face 210
property list uchar uint vertex_indices
end_header
-1.6088299 -0.324489 0.5367409 254 111 2 255 0.07981449 0.85111684
-1.6088299 -0.324489 0.563438 254 111 2 255 0.07981449 0.8891931
-1.5595866 -0.324489 0.563438 254 111 0 255 0.1500468 0.8891931
-1.5595866 -0.324489 0.5367409 254 111 1 255 0.1500468 0.85111684
-1.0179107 -0.324489 0.5367409 254 111 0 255 0.9213942 0.85111684
-1.0179107 -0.324489 0.563438 254 111 0 255 0.9213942 0.8891931
-1.0179107 -0.3737323 0.563438 254 111 0 255 0.8511617 0.8891931
-1.0179107 -0.3737323 0.5367409 254 111 0 255 0.8511617 0.85111684
-1.0179107 -0.9154081 0.5367409 254 111 0 255 0.92260295 0.85111684
-1.0179107 -0.9154081 0.563438 254 111 0 255 0.92260295 0.8891931
-1.067154 -0.9154081 0.563438 254 111 0 255 0.8523705 0.8891931
-1.067154 -0.9154081 0.5367409 254 111 0 255 0.8523705 0.85111684
-1.5595866 -0.8661648 0.5811124 254 111 1 255 0.1500468 0.1488381
-1.5911555 -0.8661648 0.5811124 254 111 3 255 0.10502228 0.1488381
-1.5911555 -0.8977337 0.5811124 254 113 21 255 0.10502228 0.10381353
-1.5595866 -0.8977337 0.5811124 254 112 13 255 0.1500468 0.10381353
-1.6088299 -0.9154081 0.22156411 254 111 0 255 0.07860571 0.4016012
-1.6088299 -0.8661648 0.22156411 254 111 0 255 0.1488381 0.4016012
-1.6088299 -0.8661648 0 254 120 49 255 0.1488381 0.085599095
-1.6088299 -0.9154081 0 254 111 0 255 0.07860571 0.085599095
-1.5595866 -0.34216338 0.5811124 254 111 0 255 0.1500468 0.89618635
-1.5911555 -0.34216338 0.5811124 254 111 0 255 0.10502228 0.89618635
-1.5911555 -0.3737323 0.5811124 254 111 0 255 0.10502228 0.8511617
-1.5595866 -0.3737323 0.5811124 254 111 0 255 0.1500468 0.8511617
-1.0179107 -0.8661648 0.5367409 254 111 0 255 0.1488381 0.85111684
-1.0179107 -0.8661648 0.563438 254 111 0 255 0.1488381 0.8891931
-1.0179107 -0.9154081 0.563438 254 111 0 255 0.07860571 0.8891931
-1.0179107 -0.9154081 0.5367409 254 111 0 255 0.07860571 0.85111684
-1.6088299 -0.8661648 0.5367409 254 111 0 255 0.1488381 0.85111684
-1.6088299 -0.8661648 0.563438 254 111 0 255 0.1488381 0.8891931
-1.6088299 -0.3737323 0.563438 254 111 0 255 0.8511617 0.8891931
-1.6088299 -0.3737323 0.5367409 254 116 35 255 0.8511617 0.85111684
-1.5595866 -0.8661648 0.22156411 254 111 0 255 0.1488381 0.4016012
-1.5595866 -0.9154081 0.22156411 254 111 0 255 0.07860571 0.4016012
-1.5595866 -0.9154081 0 254 111 0 255 0.07860571 0.085599095
-1.5595866 -0.8661648 0 254 113 22 255 0.1488381 0.085599095
-1.5595866 -0.8661648 0.5367409 254 111 0 255 0.1500468 0.1488381
-1.067154 -0.8661648 0.5367409 254 111 0 255 0.8523705 0.1488381
-1.067154 -0.9154081 0.5367409 254 111 0 255 0.8523705 0.07860571
-1.5595866 -0.9154081 0.5367409 254 121 53 255 0.1500468 0.07860571
-1.0355852 -0.34216338 0.5811124 254 111 0 255 0.89739513 0.89618635
-1.067154 -0.34216338 0.5811124 254 111 0 255 0.8523705 0.89618635
-1.067154 -0.3737323 0.5811124 254 111 0 255 0.8523705 0.8511617
-1.0355852 -0.3737323 0.5811124 254 111 0 255 0.89739513 0.8511617
-1.067154 -0.8661648 0.5811124 254 111 0 255 0.8523705 0.1488381
-1.067154 -0.8977337 0.5811124 254 111 0 255 0.8523705 0.10381353
-1.0355852 -0.8661648 0.5811124 254 111 0 255 0.89739513 0.1488381
-1.0355852 -0.8977337 0.5811124 254 111 0 255 0.89739513 0.10381353
-1.5595866 -0.9154081 0.563438 254 113 19 255 0.1500468 0.8891931
-1.5595866 -0.9154081 0.5367409 254 121 53 255 0.1500468 0.85111684
-1.5595866 -0.324489 0.5367409 254 111 1 255 0.1500468 0.9213942
-1.067154 -0.324489 0.5367409 254 111 0 255 0.8523705 0.9213942
-1.067154 -0.3737323 0.5367409 254 111 0 255 0.8523705 0.8511617
-1.5595866 -0.3737323 0.5367409 254 111 7 255 0.1500468 0.8511617
-1.0179107 -0.324489 0.22156411 254 111 0 255 0.9213942 0.4016012
-1.0179107 -0.3737323 0.22156411 254 111 0 255 0.8511617 0.4016012
-1.0179107 -0.3737323 0 254 111 3 255 0.8511617 0.085599095
-1.0179107 -0.324489 0 254 111 3 255 0.9213942 0.085599095
-1.6088299 -0.3737323 0.5367409 254 116 35 255 0.07981449 0.8511617
-1.6088299 -0.8661648 0.5367409 254 111 0 255 0.07981449 0.1488381
-1.067154 -0.324489 0.563438 254 111 0 255 0.8523705 0.8891931
-1.067154 -0.324489 0.5367409 254 111 0 255 0.8523705 0.85111684
-1.0179107 -0.324489 0.563438 254 111 0 255 0.92260295 0.8891931
-1.0179107 -0.324489 0.5367409 254 111 0 255 0.92260295 0.85111684
-1.6088299 -0.324489 0.563438 254 111 2 255 0.9213942 0.8891931
-1.6088299 -0.324489 0.5367409 254 111 2 255 0.9213942 0.85111684
-1.6088299 -0.3737323 0.22156411 254 111 0 255 0.8511617 0.4016012
-1.6088299 -0.324489 0.22156411 254 111 0 255 0.9213942 0.4016012
-1.6088299 -0.324489 0 254 111 0 255 0.9213942 0.085599095
-1.6088299 -0.3737323 0 254 111 0 255 0.8511617 0.085599095
-1.0179107 -0.3737323 0.5367409 254 111 0 255 0.92260295 0.8511617
-1.0179107 -0.8661648 0.5367409 254 111 0 255 0.92260295 0.1488381
-1.6088299 -0.9154081 0.563438 254 122 60 255 0.07981449 0.8891931
-1.6088299 -0.9154081 0.5367409 254 111 7 255 0.07981449 0.85111684
-1.067154 -0.8661648 0 254 111 6 255 0.8523705 0.1488381
-1.0179107 -0.8661648 0 254 111 0 255 0.92260295 0.1488381
-1.0179107 -0.9154081 0 254 111 0 255 0.92260295 0.07860571
-1.067154 -0.9154081 0 254 111 0 255 0.8523705 0.07860571
-1.6088299 -0.8661648 0 254 120 49 255 0.07981449 0.1488381
-1.5595866 -0.8661648 0 254 113 22 255 0.1500468 0.1488381
-1.5595866 -0.9154081 0 254 111 0 255 0.1500468 0.07860571
-1.6088299 -0.9154081 0 254 111 0 255 0.07981449 0.07860571
-1.6088299 -0.324489 0 254 111 0 255 0.07981449 0.9213942
-1.5595866 -0.324489 0 254 146 106 255 0.1500468 0.9213942
-1.5595866 -0.3737323 0 254 111 1 255 0.1500468 0.8511617
-1.6088299 -0.3737323 0 254 111 0 255 0.07981449 0.8511617
-1.067154 -0.324489 0 254 111 0 255 0.8523705 0.9213942
-1.0179107 -0.324489 0 254 111 3 255 0.92260295 0.9213942
-1.0179107 -0.3737323 0 254 111 3 255 0.92260295 0.8511617
-1.067154 -0.3737323 0 254 111 4 255 0.8523705 0.8511617
-1.067154 -0.9154081 0.22156411 254 111 0 255 0.07860571 0.4016012
-1.067154 -0.8661648 0.22156411 254 111 0 255 0.1488381 0.4016012
-1.067154 -0.8661648 0 254 111 6 255 0.1488381 0.085599095
-1.067154 -0.9154081 0 254 111 0 255 0.07860571 0.085599095
-1.5595866 -0.9154081 0.22156411 254 111 0 255 0.1500468 0.4016012
-1.6088299 -0.9154081 0.22156411 254 111 0 255 0.07981449 0.4016012
-1.6088299 -0.9154081 0 254 111 0 255 0.07981449 0.085599095
-1.5595866 -0.9154081 0 254 111 0 255 0.1500468 0.085599095
-1.5595866 -0.3737323 0.22156411 254 111 0 255 0.1500468 0.4016012
-1.6088299 -0.3737323 0.22156411 254 111 0 255 0.07981449 0.4016012
-1.6088299 -0.3737323 0 254 111 0 255 0.07981449 0.085599095
-1.5595866 -0.3737323 0 254 111 1 255 0.1500468 0.085599095
-1.0179107 -0.3737323 0.22156411 254 111 0 255 0.92260295 0.4016012
-1.067154 -0.3737323 0.22156411 254 111 0 255 0.8523705 0.4016012
-1.067154 -0.3737323 0 254 111 4 255 0.8523705 0.085599095
-1.0179107 -0.3737323 0 254 111 3 255 0.92260295 0.085599095
-1.0179107 -0.8661648 0.22156411 254 111 0 255 0.1488381 0.4016012
-1.0179107 -0.9154081 0.22156411 254 111 0 255 0.07860571 0.4016012
-1.0179107 -0.9154081 0 254 111 0 255 0.07860571 0.085599095
-1.0179107 -0.8661648 0 254 111 0 255 0.1488381 0.085599095
-1.6088299 -0.8661648 0.22156411 254 111 0 255 0.07981449 0.4016012
-1.5595866 -0.8661648 0.22156411 254 111 0 255 0.1500468 0.4016012
-1.5595866 -0.8661648 0 254 113 22 255 0.1500468 0.085599095
-1.6088299 -0.8661648 0 254 120 49 255 0.07981449 0.085599095
-1.0179107 -0.9154081 0.22156411 254 111 0 255 0.92260295 0.4016012
-1.067154 -0.9154081 0.22156411 254 111 0 255 0.8523705 0.4016012
-1.067154 -0.9154081 0 254 111 0 255 0.8523705 0.085599095
-1.0179107 -0.9154081 0 254 111 0 255 0.92260295 0.085599095
-1.5595866 -0.324489 0.22156411 254 111 0 255 0.9213942 0.4016012
-1.5595866 -0.3737323 0.22156411 254 111 0 255 0.8511617 0.4016012
-1.5595866 -0.3737323 0 254 111 1 255 0.8511617 0.085599095
-1.5595866 -0.324489 0 254 146 106 255 0.9213942 0.085599095
-1.067154 -0.8661648 0.22156411 254 111 0 255 0.8523705 0.4016012
-1.0179107 -0.8661648 0.22156411 254 111 0 255 0.92260295 0.4016012
-1.0179107 -0.8661648 0 254 111 0 255 0.92260295 0.085599095
-1.067154 -0.8661648 0 254 111 6 255 0.8523705 0.085599095
-1.6088299 -0.324489 0.22156411 254 111 0 255 0.07981449 0.4016012
-1.5595866 -0.324489 0.22156411 254 111 0 255 0.1500468 0.4016012
-1.5595866 -0.324489 0 254 146 106 255 0.1500468 0.085599095
-1.6088299 -0.324489 0 254 111 0 255 0.07981449 0.085599095
-1.067154 -0.324489 0.22156411 254 111 0 255 0.8523705 0.4016012
-1.0179107 -0.324489 0.22156411 254 111 0 255 0.92260295 0.4016012
-1.0179107 -0.324489 0 254 111 3 255 0.92260295 0.085599095
-1.067154 -0.324489 0 254 111 0 255 0.8523705 0.085599095
-1.067154 -0.3737323 0.22156411 254 111 0 255 0.8511617 0.4016012
-1.067154 -0.324489 0.22156411 254 111 0 255 0.9213942 0.4016012
-1.067154 -0.324489 0 254 111 0 255 0.9213942 0.085599095
-1.067154 -0.3737323 0 254 111 4 255 0.8511617 0.085599095
-1.6088299 -0.8661648 0.5367409 254 111 0 255 0.07981449 0.85111684
-1.5595866 -0.8661648 0.5367409 254 111 0 255 0.1500468 0.85111684
-1.5595866 -0.8661648 0.26837045 254 111 0 255 0.1500468 0.46835795
-1.6088299 -0.8661648 0.26837045 254 111 0 255 0.07981449 0.46835795
-1.6088299 -0.9154081 0.26837045 254 111 0 255 0.07981449 0.46835795
-1.5595866 -0.9154081 0.26837045 254 111 0 255 0.1500468 0.46835795
-1.5595866 -0.8661648 0.5367409 254 111 0 255 0.1488381 0.85111684
-1.5595866 -0.9154081 0.5367409 254 121 53 255 0.07860571 0.85111684
-1.5595866 -0.9154081 0.26837045 254 111 0 255 0.07860571 0.46835795
-1.5595866 -0.8661648 0.26837045 254 111 0 255 0.1488381 0.46835795
-1.6088299 -0.9154081 0.5367409 254 111 7 255 0.07860571 0.85111684
-1.6088299 -0.8661648 0.26837045 254 111 0 255 0.1488381 0.46835795
-1.6088299 -0.9154081 0.26837045 254 111 0 255 0.07860571 0.46835795
-1.5595866 -0.324489 0.26837045 254 111 0 255 0.1500468 0.46835795
-1.6088299 -0.324489 0.26837045 254 111 0 255 0.07981449 0.46835795
-1.5595866 -0.324489 0.5367409 254 111 1 255 0.9213942 0.85111684
-1.5595866 -0.3737323 0.5367409 254 111 7 255 0.8511617 0.85111684
-1.5595866 -0.3737323 0.26837045 254 111 0 255 0.8511617 0.46835795
-1.5595866 -0.324489 0.26837045 254 111 0 255 0.9213942 0.46835795
-1.5595866 -0.3737323 0.5367409 254 111 7 255 0.1500468 0.85111684
-1.6088299 -0.3737323 0.5367409 254 116 35 255 0.07981449 0.85111684
-1.6088299 -0.3737323 0.26837045 254 111 0 255 0.07981449 0.46835795
-1.5595866 -0.3737323 0.26837045 254 111 0 255 0.1500468 0.46835795
-1.6088299 -0.324489 0.26837045 254 111 0 255 0.9213942 0.46835795
-1.6088299 -0.3737323 0.26837045 254 111 0 255 0.8511617 0.46835795
-1.067154 -0.3737323 0.5367409 254 111 0 255 0.8511617 0.85111684
-1.067154 -0.324489 0.5367409 254 111 0 255 0.9213942 0.85111684
-1.067154 -0.324489 0.26837045 254 111 0 255 0.9213942 0.46835795
-1.067154 -0.3737323 0.26837045 254 111 0 255 0.8511617 0.46835795
-1.0179107 -0.324489 0.26837045 254 111 0 255 0.92260295 0.46835795
-1.067154 -0.324489 0.26837045 254 111 0 255 0.8523705 0.46835795
-1.0179107 -0.3737323 0.5367409 254 111 0 255 0.92260295 0.85111684
-1.067154 -0.3737323 0.5367409 254 111 0 255 0.8523705 0.85111684
-1.067154 -0.3737323 0.26837045 254 111 0 255 0.8523705 0.46835795
-1.0179107 -0.3737323 0.26837045 254 111 0 255 0.92260295 0.46835795
-1.0179107 -0.3737323 0.26837045 254 111 0 255 0.8511617 0.46835795
-1.0179107 -0.324489 0.26837045 254 111 0 255 0.9213942 0.46835795
-1.067154 -0.8661648 0.5367409 254 111 0 255 0.8523705 0.85111684
-1.0179107 -0.8661648 0.5367409 254 111 0 255 0.92260295 0.85111684
-1.0179107 -0.8661648 0.26837045 254 111 0 255 0.92260295 0.46835795
-1.067154 -0.8661648 0.26837045 254 111 0 255 0.8523705 0.46835795
-1.067154 -0.9154081 0.26837045 254 111 0 255 0.8523705 0.46835795
-1.0179107 -0.9154081 0.26837045 254 111 0 255 0.92260295 0.46835795
-1.0179107 -0.9154081 0.26837045 254 111 0 255 0.07860571 0.46835795
-1.0179107 -0.8661648 0.26837045 254 111 0 255 0.1488381 0.46835795
-1.067154 -0.9154081 0.5367409 254 111 0 255 0.07860571 0.85111684
-1.067154 -0.8661648 0.5367409 254 111 0 255 0.1488381 0.85111684
-1.067154 -0.8661648 0.26837045 254 111 0 255 0.1488381 0.46835795
-1.067154 -0.9154081 0.26837045 254 111 0 255 0.07860571 0.46835795
-1.5595866 -0.8661648 0.22156411 254 111 0 255 0.1500468 0.1488381
-1.6088299 -0.8661648 0.22156411 254 111 0 255 0.07981449 0.1488381
-1.6088299 -0.3737323 0.22156411 254 111 0 255 0.07981449 0.8511617
-1.5595866 -0.3737323 0.22156411 254 111 0 255 0.1500468 0.8511617
-1.067154 -0.8661648 0.22156411 254 111 0 255 0.8523705 0.1488381
-1.067154 -0.9154081 0.22156411 254 111 0 255 0.8523705 0.07860571
-1.5595866 -0.9154081 0.22156411 254 111 0 255 0.1500468 0.07860571
-1.5595866 -0.324489 0.22156411 254 111 0 255 0.1500468 0.9213942
-1.067154 -0.324489 0.22156411 254 111 0 255 0.8523705 0.9213942
-1.067154 -0.3737323 0.22156411 254 111 0 255 0.8523705 0.8511617
-1.0179107 -0.3737323 0.22156411 254 111 0 255 0.92260295 0.8511617
-1.0179107 -0.8661648 0.22156411 254 111 0 255 0.92260295 0.1488381
-1.5595866 -0.324489 0.26837045 254 111 0 255 0.1500468 0.9213942
-1.5595866 -0.3737323 0.26837045 254 111 0 255 0.1500468 0.8511617
-1.067154 -0.3737323 0.26837045 254 111 0 255 0.8523705 0.8511617
-1.067154 -0.324489 0.26837045 254 111 0 255 0.8523705 0.9213942
-1.6088299 -0.8661648 0.26837045 254 111 0 255 0.07981449 0.1488381
-1.5595866 -0.8661648 0.26837045 254 111 0 255 0.1500468 0.1488381
-1.6088299 -0.3737323 0.26837045 254 111 0 255 0.07981449 0.8511617
-1.5595866 -0.9154081 0.26837045 254 111 0 255 0.1500468 0.07860571
-1.067154 -0.9154081 0.26837045 254 111 0 255 0.8523705 0.07860571
-1.067154 -0.8661648 0.26837045 254 111 0 255 0.8523705 0.1488381
-1.0179107 -0.3737323 0.26837045 254 111 0 255 0.92260295 0.8511617
-1.0179107 -0.8661648 0.26837045 254 111 0 255 0.92260295 0.1488381
-1.605008 -0.92119366 0 254 111 0 255 0.070354134 0.085599095
-1.605008 -0.92119366 0.004023075 254 111 0 255 0.070354134 0.091336936
-1.605008 -0.9154081 0.004023075 254 111 0 255 0.07860571 0.091336936
-1.605008 -0.9154081 0 254 112 16 255 0.07860571 0.085599095
-1.605008 -0.9154081 0 254 112 16 255 0.08526534 0.085599095
-1.605008 -0.9154081 0.004023075 254 111 0 255 0.08526534 0.091336936
-1.5612814 -0.9154081 0.004023075 254 114 27 255 0.14762956 0.091336936
-1.5612814 -0.9154081 0 254 115 35 255 0.14762956 0.085599095
-1.5612814 -0.92119366 0 254 111 2 255 0.070354134 0.085599095
-1.5612814 -0.92119366 0.004023075 254 111 1 255 0.070354134 0.091336936
-1.5612814 -0.9705223 0.004023075 254 111 0 255 0 0.091336936
-1.5612814 -0.9705223 0 254 113 21 255 0 0.085599095
-1.5612814 -0.9705223 0 254 113 21 255 0.14762956 0.085599095
-1.5612814 -0.9705223 0.004023075 254 111 0 255 0.14762956 0.091336936
-1.605008 -0.9705223 0.004023075 254 111 0 255 0.08526534 0.091336936
-1.605008 -0.9705223 0 254 111 0 255 0.08526534 0.085599095
-1.605008 -0.92119366 0 254 111 0 255 0.08526534 0.070354134
-1.5612814 -0.92119366 0 254 111 2 255 0.14762956 0.070354134
-1.5612814 -0.9705223 0 254 113 21 255 0.14762956 0
-1.605008 -0.9705223 0 254 111 0 255 0.08526534 0
-1.5612814 -0.92119366 0.004023075 254 111 1 255 0.14762956 0.070354134
-1.605008 -0.92119366 0.004023075 254 111 0 255 0.08526534 0.070354134
-1.605008 -0.9705223 0.004023075 254 111 0 255 0.08526534 0
-1.5612814 -0.9705223 0.004023075 254 111 0 255 0.14762956 0
-1.5612814 -0.9154081 0.004023075 254 114 27 255 0.07860571 0.091336936
-1.5612814 -0.9154081 0.083909094 254 111 0 255 0.07860571 0.20527303
-1.5612814 -0.92119366 0.083909094 254 111 0 255 0.070354134 0.20527303
-1.605008 -0.9154081 0 254 112 16 255 0.08526534 0.07860571
-1.5612814 -0.9154081 0 254 115 35 255 0.14762956 0.07860571
-1.5612814 -0.9154081 0 254 115 35 255 0.07860571 0.085599095
-1.605008 -0.9705223 0 254 111 0 255 0 0.085599095
-1.605008 -0.9705223 0.004023075 254 111 0 255 0 0.091336936
-1.5612814 -0.9154081 0.083909094 254 111 0 255 0.14762956 0.07860571
-1.605008 -0.9154081 0.083909094 254 111 0 255 0.08526534 0.07860571
-1.605008 -0.92119366 0.083909094 254 111 0 255 0.08526534 0.070354134
-1.5612814 -0.92119366 0.083909094 254 111 0 255 0.14762956 0.070354134
-1.605008 -0.92119366 0.083909094 254 111 0 255 0.070354134 0.20527303
-1.605008 -0.9154081 0.083909094 254 111 0 255 0.07860571 0.20527303
-1.605008 -0.9154081 0.083909094 254 111 0 255 0.08526534 0.20527303
-1.5612814 -0.9154081 0.083909094 254 111 0 255 0.14762956 0.20527303
-1.605008 -0.92119366 0.004023075 254 111 0 255 0.08526534 0.091336936
-1.5612814 -0.92119366 0.004023075 254 111 1 255 0.14762956 0.091336936
-1.5612814 -0.92119366 0.083909094 254 111 0 255 0.14762956 0.20527303
-1.605008 -0.92119366 0.083909094 254 111 0 255 0.08526534 0.20527303
-1.6146154 -0.8661648 0 254 127 69 255 0.071562886 0.085599095
-1.6146154 -0.8661648 0.004023075 254 111 0 255 0.071562886 0.091336936
-1.6088299 -0.8661648 0.004023075 254 119 44 255 0.07981452 0.091336936
-1.6088299 -0.8661648 0 254 121 52 255 0.07981452 0.085599095
-1.6088299 -0.8661648 0 254 121 52 255 0.14883816 0.085599095
-1.6088299 -0.8661648 0.004023075 254 119 44 255 0.14883816 0.091336936
-1.6088299 -0.9098913 0.004023075 254 111 0 255 0.08647391 0.091336936
-1.6088299 -0.9098913 0 254 111 0 255 0.08647391 0.085599095
-1.6146154 -0.9098913 0 254 111 0 255 0.071562886 0.085599095
-1.6146154 -0.9098913 0.004023075 254 111 0 255 0.071562886 0.091336936
-1.663944 -0.9098913 0.004023075 254 111 0 255 0.001208812 0.091336936
-1.663944 -0.9098913 0 254 111 1 255 0.001208812 0.085599095
-1.663944 -0.9098913 0 254 111 1 255 0.08647391 0.085599095
-1.663944 -0.9098913 0.004023075 254 111 0 255 0.08647391 0.091336936
-1.663944 -0.8661648 0.004023075 254 111 0 255 0.14883816 0.091336936
-1.663944 -0.8661648 0 254 159 127 255 0.14883816 0.085599095
-1.6146154 -0.8661648 0 254 127 69 255 0.071562886 0.14883816
-1.6146154 -0.9098913 0 254 111 0 255 0.071562886 0.08647391
-1.663944 -0.9098913 0 254 111 1 255 0.001208812 0.08647391
-1.663944 -0.8661648 0 254 159 127 255 0.001208812 0.14883816
-1.6146154 -0.9098913 0.004023075 254 111 0 255 0.071562886 0.08647391
-1.6146154 -0.8661648 0.004023075 254 111 0 255 0.071562886 0.14883816
-1.663944 -0.8661648 0.004023075 254 111 0 255 0.001208812 0.14883816
-1.663944 -0.9098913 0.004023075 254 111 0 255 0.001208812 0.08647391
-1.6088299 -0.9098913 0.004023075 254 111 0 255 0.07981452 0.091336936
-1.6088299 -0.9098913 0.083909094 254 111 0 255 0.07981452 0.20527303
-1.6146154 -0.9098913 0.083909094 254 111 0 255 0.071562886 0.20527303
-1.6088299 -0.8661648 0 254 121 52 255 0.07981452 0.14883816
-1.6088299 -0.9098913 0 254 111 0 255 0.07981452 0.08647391
-1.6088299 -0.9098913 0 254 111 0 255 0.07981452 0.085599095
-1.663944 -0.8661648 0 254 159 127 255 0.001208812 0.085599095
-1.663944 -0.8661648 0.004023075 254 111 0 255 0.001208812 0.091336936
-1.6088299 -0.9098913 0.083909094 254 111 0 255 0.07981452 0.08647391
-1.6088299 -0.8661648 0.083909094 254 111 0 255 0.07981452 0.14883816
-1.6146154 -0.8661648 0.083909094 254 111 0 255 0.071562886 0.14883816
-1.6146154 -0.9098913 0.083909094 254 111 0 255 0.071562886 0.08647391
-1.6146154 -0.8661648 0.083909094 254 111 0 255 0.071562886 0.20527303
-1.6088299 -0.8661648 0.083909094 254 111 0 255 0.07981452 0.20527303
-1.6088299 -0.8661648 0.083909094 254 111 0 255 0.14883816 0.20527303
-1.6088299 -0.9098913 0.083909094 254 111 0 255 0.08647391 0.20527303
-1.6146154 -0.8661648 0.004023075 254 111 0 255 0.14883816 0.091336936
-1.6146154 -0.9098913 0.004023075 254 111 0 255 0.08647391 0.091336936
-1.6146154 -0.9098913 0.083909094 254 111 0 255 0.08647391 0.20527303
-1.6146154 -0.8661648 0.083909094 254 111 0 255 0.14883816 0.20527303
-1.0234276 -0.92119366 0 254 111 0 255 0.070354134 0.085599095
-1.0234276 -0.92119366 0.004023075 254 111 7 255 0.070354134 0.091336936
-1.0234276 -0.9154081 0.004023075 254 111 0 255 0.07860571 0.091336936
-1.0234276 -0.9154081 0 254 111 0 255 0.07860571 0.085599095
-1.0234276 -0.9154081 0 254 111 0 255 0.9147347 0.085599095
-1.0234276 -0.9154081 0.004023075 254 111 0 255 0.9147347 0.091336936
-1.067154 -0.9154081 0.004023075 254 111 0 255 0.8523705 0.091336936
-1.067154 -0.9154081 0 254 111 0 255 0.8523705 0.085599095
-1.067154 -0.92119366 0 254 111 0 255 0.070354134 0.085599095
-1.067154 -0.92119366 0.004023075 254 111 5 255 0.070354134 0.091336936
-1.067154 -0.9705223 0.004023075 254 112 11 255 0 0.091336936
-1.067154 -0.9705223 0 254 112 13 255 0 0.085599095
-1.067154 -0.9705223 0 254 112 13 255 0.8523705 0.085599095
-1.067154 -0.9705223 0.004023075 254 112 11 255 0.8523705 0.091336936
-1.0234276 -0.9705223 0.004023075 254 117 39 255 0.9147347 0.091336936
-1.0234276 -0.9705223 0 254 111 3 255 0.9147347 0.085599095
-1.0234276 -0.92119366 0 254 111 0 255 0.9147347 0.070354134
-1.067154 -0.92119366 0 254 111 0 255 0.8523705 0.070354134
-1.067154 -0.9705223 0 254 112 13 255 0.8523705 0
-1.0234276 -0.9705223 0 254 111 3 255 0.9147347 0
-1.067154 -0.92119366 0.004023075 254 111 5 255 0.8523705 0.070354134
-1.0234276 -0.92119366 0.004023075 254 111 7 255 0.9147347 0.070354134
-1.0234276 -0.9705223 0.004023075 254 117 39 255 0.9147347 0
-1.067154 -0.9705223 0.004023075 254 112 11 255 0.8523705 0
-1.067154 -0.9154081 0.004023075 254 111 0 255 0.07860571 0.091336936
-1.067154 -0.9154081 0.083909094 254 111 0 255 0.07860571 0.20527303
-1.067154 -0.92119366 0.083909094 254 111 0 255 0.070354134 0.20527303
-1.0234276 -0.9154081 0 254 111 0 255 0.9147347 0.07860571
-1.067154 -0.9154081 0 254 111 0 255 0.8523705 0.07860571
-1.067154 -0.9154081 0 254 111 0 255 0.07860571 0.085599095
-1.0234276 -0.9705223 0 254 111 3 255 0 0.085599095
-1.0234276 -0.9705223 0.004023075 254 117 39 255 0 0.091336936
-1.067154 -0.9154081 0.083909094 254 111 0 255 0.8523705 0.07860571
-1.0234276 -0.9154081 0.083909094 254 111 0 255 0.9147347 0.07860571
-1.0234276 -0.92119366 0.083909094 254 111 0 255 0.9147347 0.070354134
-1.067154 -0.92119366 0.083909094 254 111 0 255 0.8523705 0.070354134
-1.0234276 -0.92119366 0.083909094 254 111 0 255 0.070354134 0.20527303
-1.0234276 -0.9154081 0.083909094 254 111 0 255 0.07860571 0.20527303
-1.0234276 -0.9154081 0.083909094 254 111 0 255 0.9147347 0.20527303
-1.067154 -0.9154081 0.083909094 254 111 0 255 0.8523705 0.20527303
-1.0234276 -0.92119366 0.004023075 254 111 7 255 0.9147347 0.091336936
-1.067154 -0.92119366 0.004023075 254 111 5 255 0.8523705 0.091336936
-1.067154 -0.92119366 0.083909094 254 111 0 255 0.8523705 0.20527303
-1.0234276 -0.92119366 0.083909094 254 111 0 255 0.9147347 0.20527303
-1.0138202 -0.8661648 0 254 111 0 255 0.9284371 0.085599095
-1.0138202 -0.8661648 0.004023075 254 111 1 255 0.9284371 0.091336936
-1.0196058 -0.8661648 0.004023075 254 111 0 255 0.9201855 0.091336936
-1.0196058 -0.8661648 0 254 111 0 255 0.9201855 0.085599095
-1.0196058 -0.8661648 0 254 111 0 255 0.14883816 0.085599095
-1.0196058 -0.8661648 0.004023075 254 111 0 255 0.14883816 0.091336936
-1.0196058 -0.9098913 0.004023075 254 111 0 255 0.08647391 0.091336936
-1.0196058 -0.9098913 0 254 111 0 255 0.08647391 0.085599095
-1.0138202 -0.9098913 0 254 111 0 255 0.9284371 0.085599095
-1.0138202 -0.9098913 0.004023075 254 111 0 255 0.9284371 0.091336936
-0.96449155 -0.9098913 0.004023075 254 118 43 255 0.9987912 0.091336936
-0.96449155 -0.9098913 0 254 114 29 255 0.9987912 0.085599095
-0.96449155 -0.9098913 0 254 114 29 255 0.08647391 0.085599095
-0.96449155 -0.9098913 0.004023075 254 118 43 255 0.08647391 0.091336936
-0.96449155 -0.8661648 0.004023075 254 111 5 255 0.14883816 0.091336936
-0.96449155 -0.8661648 0 254 111 6 255 0.14883816 0.085599095
-1.0138202 -0.8661648 0 254 111 0 255 0.9284371 0.14883816
-1.0138202 -0.9098913 0 254 111 0 255 0.9284371 0.08647391
-0.96449155 -0.9098913 0 254 114 29 255 0.9987912 0.08647391
-0.96449155 -0.8661648 0 254 111 6 255 0.9987912 0.14883816
-1.0138202 -0.9098913 0.004023075 254 111 0 255 0.9284371 0.08647391
-1.0138202 -0.8661648 0.004023075 254 111 1 255 0.9284371 0.14883816
-0.96449155 -0.8661648 0.004023075 254 111 5 255 0.9987912 0.14883816
-0.96449155 -0.9098913 0.004023075 254 118 43 255 0.9987912 0.08647391
-1.0196058 -0.9098913 0.004023075 254 111 0 255 0.9201855 0.091336936
-1.0196058 -0.9098913 0.083909094 254 111 0 255 0.9201855 0.20527303
-1.0138202 -0.9098913 0.083909094 254 111 0 255 0.9284371 0.20527303
-1.0196058 -0.8661648 0 254 111 0 255 0.9201855 0.14883816
-1.0196058 -0.9098913 0 254 111 0 255 0.9201855 0.08647391
-1.0196058 -0.9098913 0 254 111 0 255 0.9201855 0.085599095
-0.96449155 -0.8661648 0 254 111 6 255 0.9987912 0.085599095
-0.96449155 -0.8661648 0.004023075 254 111 5 255 0.9987912 0.091336936
-1.0196058 -0.9098913 0.083909094 254 111 0 255 0.9201855 0.08647391
-1.0196058 -0.8661648 0.083909094 254 111 0 255 0.9201855 0.14883816
-1.0138202 -0.8661648 0.083909094 254 111 0 255 0.9284371 0.14883816
-1.0138202 -0.9098913 0.083909094 254 111 0 255 0.9284371 0.08647391
-1.0138202 -0.8661648 0.083909094 254 111 0 255 0.9284371 0.20527303
-1.0196058 -0.8661648 0.083909094 254 111 0 255 0.9201855 0.20527303
-1.0196058 -0.8661648 0.083909094 254 111 0 255 0.14883816 0.20527303
-1.0196058 -0.9098913 0.083909094 254 111 0 255 0.08647391 0.20527303
-1.0138202 -0.8661648 0.004023075 254 111 1 255 0.14883816 0.091336936
-1.0138202 -0.9098913 0.004023075 254 111 0 255 0.08647391 0.091336936
-1.0138202 -0.9098913 0.083909094 254 111 0 255 0.08647391 0.20527303
-1.0138202 -0.8661648 0.083909094 254 111 0 255 0.14883816 0.20527303
-1.605008 -0.31870335 0 254 111 0 255 0.9296459 0.085599095
-1.605008 -0.31870335 0.004023075 254 111 2 255 0.9296459 0.091336936
-1.605008 -0.32448894 0.004023075 254 111 0 255 0.9213943 0.091336936
-1.605008 -0.32448894 0 254 111 0 255 0.9213943 0.085599095
-1.605008 -0.32448894 0 254 111 0 255 0.08526528 0.085599095
-1.605008 -0.32448894 0.004023075 254 111 0 255 0.08526528 0.091336936
-1.5612816 -0.32448894 0.004023075 254 111 0 255 0.1476295 0.091336936
-1.5612816 -0.32448894 0 254 111 0 255 0.1476295 0.085599095
-1.5612816 -0.31870335 0 254 111 0 255 0.9296459 0.085599095
-1.5612816 -0.31870335 0.004023075 254 111 0 255 0.9296459 0.091336936
-1.5612816 -0.26937473 0.004023075 254 111 0 255 1 0.091336936
-1.5612816 -0.26937473 0 254 111 0 255 1 0.085599095
-1.5612816 -0.26937473 0 254 111 0 255 0.1476295 0.085599095
-1.5612816 -0.26937473 0.004023075 254 111 0 255 0.1476295 0.091336936
-1.605008 -0.26937473 0.004023075 254 112 13 255 0.08526528 0.091336936
-1.605008 -0.26937473 0 254 111 0 255 0.08526528 0.085599095
-1.605008 -0.31870335 0 254 111 0 255 0.08526528 0.9296459
-1.5612816 -0.31870335 0 254 111 0 255 0.1476295 0.9296459
-1.5612816 -0.26937473 0 254 111 0 255 0.1476295 1
-1.605008 -0.26937473 0 254 111 0 255 0.08526528 1
-1.5612816 -0.31870335 0.004023075 254 111 0 255 0.1476295 0.9296459
-1.605008 -0.31870335 0.004023075 254 111 2 255 0.08526528 0.9296459
-1.605008 -0.26937473 0.004023075 254 112 13 255 0.08526528 1
-1.5612816 -0.26937473 0.004023075 254 111 0 255 0.1476295 1
-1.5612816 -0.32448894 0.004023075 254 111 0 255 0.9213943 0.091336936
-1.5612816 -0.32448894 0.083909094 254 111 0 255 0.9213943 0.20527303
-1.5612816 -0.31870335 0.083909094 254 111 0 255 0.9296459 0.20527303
-1.605008 -0.32448894 0 254 111 0 255 0.08526528 0.9213943
-1.5612816 -0.32448894 0 254 111 0 255 0.1476295 0.9213943
-1.5612816 -0.32448894 0 254 111 0 255 0.9213943 0.085599095
-1.605008 -0.26937473 0 254 111 0 255 1 0.085599095
-1.605008 -0.26937473 0.004023075 254 112 13 255 1 0.091336936
-1.5612816 -0.32448894 0.083909094 254 111 0 255 0.1476295 0.9213943
-1.605008 -0.32448894 0.083909094 254 111 2 255 0.08526528 0.9213943
-1.605008 -0.31870335 0.083909094 254 111 0 255 0.08526528 0.9296459
-1.5612816 -0.31870335 0.083909094 254 111 0 255 0.1476295 0.9296459
-1.605008 -0.31870335 0.083909094 254 111 0 255 0.9296459 0.20527303
-1.605008 -0.32448894 0.083909094 254 111 2 255 0.9213943 0.20527303
-1.605008 -0.32448894 0.083909094 254 111 2 255 0.08526528 0.20527303
-1.5612816 -0.32448894 0.083909094 254 111 0 255 0.1476295 0.20527303
-1.605008 -0.31870335 0.004023075 254 111 2 255 0.08526528 0.091336936
-1.5612816 -0.31870335 0.004023075 254 111 0 255 0.1476295 0.091336936
-1.5612816 -0.31870335 0.083909094 254 111 0 255 0.1476295 0.20527303
-1.605008 -0.31870335 0.083909094 254 111 0 255 0.08526528 0.20527303
-1.6146154 -0.37373227 0 254 111 0 255 0.07156286 0.085599095
-1.6146154 -0.37373227 0.004023075 254 111 0 255 0.07156286 0.091336936
-1.6088299 -0.37373227 0.004023075 254 111 0 255 0.07981449 0.091336936
-1.6088299 -0.37373227 0 254 111 0 255 0.07981449 0.085599095
-1.6088299 -0.37373227 0 254 111 0 255 0.85116184 0.085599095
-1.6088299 -0.37373227 0.004023075 254 111 0 255 0.85116184 0.091336936
-1.6088299 -0.33000576 0.004023075 254 111 0 255 0.913526 0.091336936
-1.6088299 -0.33000576 0 254 111 0 255 0.913526 0.085599095
-1.6146154 -0.33000576 0 254 111 0 255 0.07156286 0.085599095
-1.6146154 -0.33000576 0.004023075 254 111 1 255 0.07156286 0.091336936
-1.663944 -0.33000576 0.004023075 254 111 6 255 0.0012087524 0.091336936
-1.663944 -0.33000576 0 254 111 0 255 0.0012087524 0.085599095
-1.663944 -0.33000576 0 254 111 0 255 0.913526 0.085599095
-1.663944 -0.33000576 0.004023075 254 111 6 255 0.913526 0.091336936
-1.663944 -0.37373227 0.004023075 254 122 59 255 0.85116184 0.091336936
-1.663944 -0.37373227 0 254 111 0 255 0.85116184 0.085599095
-1.6146154 -0.37373227 0 254 111 0 255 0.07156286 0.85116184
-1.6146154 -0.33000576 0 254 111 0 255 0.07156286 0.913526
-1.663944 -0.33000576 0 254 111 0 255 0.0012087524 0.913526
-1.663944 -0.37373227 0 254 111 0 255 0.0012087524 0.85116184
-1.6146154 -0.33000576 0.004023075 254 111 1 255 0.07156286 0.913526
-1.6146154 -0.37373227 0.004023075 254 111 0 255 0.07156286 0.85116184
-1.663944 -0.37373227 0.004023075 254 122 59 255 0.0012087524 0.85116184
-1.663944 -0.33000576 0.004023075 254 111 6 255 0.0012087524 0.913526
-1.6088299 -0.33000576 0.004023075 254 111 0 255 0.07981449 0.091336936
-1.6088299 -0.33000576 0.083909094 254 111 0 255 0.07981449 0.20527303
-1.6146154 -0.33000576 0.083909094 254 111 0 255 0.07156286 0.20527303
-1.6088299 -0.37373227 0 254 111 0 255 0.07981449 0.85116184
-1.6088299 -0.33000576 0 254 111 0 255 0.07981449 0.913526
-1.6088299 -0.33000576 0 254 111 0 255 0.07981449 0.085599095
-1.663944 -0.37373227 0 254 111 0 255 0.0012087524 0.085599095
-1.663944 -0.37373227 0.004023075 254 122 59 255 0.0012087524 0.091336936
-1.6088299 -0.33000576 0.083909094 254 111 0 255 0.07981449 0.913526
-1.6088299 -0.37373227 0.083909094 254 111 0 255 0.07981449 0.85116184
-1.6146154 -0.37373227 0.083909094 254 111 5 255 0.07156286 0.85116184
-1.6146154 -0.33000576 0.083909094 254 111 0 255 0.07156286 0.913526
-1.6146154 -0.37373227 0.083909094 254 111 5 255 0.07156286 0.20527303
-1.6088299 -0.37373227 0.083909094 254 111 0 255 0.07981449 0.20527303
-1.6088299 -0.37373227 0.083909094 254 111 0 255 0.85116184 0.20527303
-1.6088299 -0.33000576 0.083909094 254 111 0 255 0.913526 0.20527303
-1.6146154 -0.37373227 0.004023075 254 111 0 255 0.85116184 0.091336936
-1.6146154 -0.33000576 0.004023075 254 111 1 255 0.913526 0.091336936
-1.6146154 -0.33000576 0.083909094 254 111 0 255 0.913526 0.20527303
-1.6146154 -0.37373227 0.083909094 254 111 5 255 0.85116184 0.20527303
-1.0234276 -0.31870335 0 254 173 146 255 0.9296459 0.085599095
-1.0234276 -0.31870335 0.004023075 254 111 0 255 0.9296459 0.091336936
-1.0234276 -0.32448894 0.004023075 254 121 52 255 0.9213943 0.091336936
-1.0234276 -0.32448894 0 254 129 73 255 0.9213943 0.085599095
-1.0234276 -0.32448894 0 254 129 73 255 0.9147347 0.085599095
-1.0234276 -0.32448894 0.004023075 254 121 52 255 0.9147347 0.091336936
-1.067154 -0.32448894 0.004023075 254 111 10 255 0.8523705 0.091336936
-1.067154 -0.32448894 0 254 112 13 255 0.8523705 0.085599095
-1.067154 -0.31870335 0 254 111 0 255 0.9296459 0.085599095
-1.067154 -0.31870335 0.004023075 254 111 0 255 0.9296459 0.091336936
-1.067154 -0.26937473 0.004023075 254 111 0 255 1 0.091336936
-1.067154 -0.26937473 0 254 111 6 255 1 0.085599095
-1.067154 -0.26937473 0 254 111 6 255 0.8523705 0.085599095
-1.067154 -0.26937473 0.004023075 254 111 0 255 0.8523705 0.091336936
-1.0234276 -0.26937473 0.004023075 254 111 1 255 0.9147347 0.091336936
-1.0234276 -0.26937473 0 254 115 30 255 0.9147347 0.085599095
-1.0234276 -0.31870335 0 254 173 146 255 0.9147347 0.9296459
-1.067154 -0.31870335 0 254 111 0 255 0.8523705 0.9296459
-1.067154 -0.26937473 0 254 111 6 255 0.8523705 1
-1.0234276 -0.26937473 0 254 115 30 255 0.9147347 1
-1.067154 -0.31870335 0.004023075 254 111 0 255 0.8523705 0.9296459
-1.0234276 -0.31870335 0.004023075 254 111 0 255 0.9147347 0.9296459
-1.0234276 -0.26937473 0.004023075 254 111 1 255 0.9147347 1
-1.067154 -0.26937473 0.004023075 254 111 0 255 0.8523705 1
-1.067154 -0.32448894 0.004023075 254 111 10 255 0.9213943 0.091336936
-1.067154 -0.32448894 0.083909094 254 111 0 255 0.9213943 0.20527303
-1.067154 -0.31870335 0.083909094 254 111 0 255 0.9296459 0.20527303
-1.0234276 -0.32448894 0 254 129 73 255 0.9147347 0.9213943
-1.067154 -0.32448894 0 254 112 13 255 0.8523705 0.9213943
-1.067154 -0.32448894 0 254 112 13 255 0.9213943 0.085599095
-1.0234276 -0.26937473 0 254 115 30 255 1 0.085599095
-1.0234276 -0.26937473 0.004023075 254 111 1 255 1 0.091336936
-1.067154 -0.32448894 0.083909094 254 111 0 255 0.8523705 0.9213943
-1.0234276 -0.32448894 0.083909094 254 111 0 255 0.9147347 0.9213943
-1.0234276 -0.31870335 0.083909094 254 111 0 255 0.9147347 0.9296459
-1.067154 -0.31870335 0.083909094 254 111 0 255 0.8523705 0.9296459
-1.0234276 -0.31870335 0.083909094 254 111 0 255 0.9296459 0.20527303
-1.0234276 -0.32448894 0.083909094 254 111 0 255 0.9213943 0.20527303
-1.0234276 -0.32448894 0.083909094 254 111 0 255 0.9147347 0.20527303
-1.067154 -0.32448894 0.083909094 254 111 0 255 0.8523705 0.20527303
-1.0234276 -0.31870335 0.004023075 254 111 0 255 0.9147347 0.091336936
-1.067154 -0.31870335 0.004023075 254 111 0 255 0.8523705 0.091336936
-1.067154 -0.31870335 0.083909094 254 111 0 255 0.8523705 0.20527303
-1.0234276 -0.31870335 0.083909094 254 111 0 255 0.9147347 0.20527303
-1.0138202 -0.37373227 0 254 111 0 255 0.9284371 0.085599095
-1.0138202 -0.37373227 0.004023075 254 111 0 255 0.9284371 0.091336936
-1.0196058 -0.37373227 0.004023075 254 112 11 255 0.9201855 0.091336936
-1.0196058 -0.37373227 0 254 112 13 255 0.9201855 0.085599095
-1.0196058 -0.37373227 0 254 112 13 255 0.85116184 0.085599095
-1.0196058 -0.37373227 0.004023075 254 112 11 255 0.85116184 0.091336936
-1.0196058 -0.33000576 0.004023075 254 111 0 255 0.913526 0.091336936
-1.0196058 -0.33000576 0 254 111 0 255 0.913526 0.085599095
-1.0138202 -0.33000576 0 254 111 0 255 0.9284371 0.085599095
-1.0138202 -0.33000576 0.004023075 254 111 0 255 0.9284371 0.091336936
-0.96449155 -0.33000576 0.004023075 254 112 11 255 0.9987912 0.091336936
-0.96449155 -0.33000576 0 254 124 63 255 0.9987912 0.085599095
-0.96449155 -0.33000576 0 254 124 63 255 0.913526 0.085599095
-0.96449155 -0.33000576 0.004023075 254 112 11 255 0.913526 0.091336936
-0.96449155 -0.37373227 0.004023075 254 114 24 255 0.85116184 0.091336936
-0.96449155 -0.37373227 0 254 206 193 255 0.85116184 0.085599095
-1.0138202 -0.37373227 0 254 111 0 255 0.9284371 0.85116184
-1.0138202 -0.33000576 0 254 111 0 255 0.9284371 0.913526
-0.96449155 -0.33000576 0 254 124 63 255 0.9987912 0.913526
-0.96449155 -0.37373227 0 254 206 193 255 0.9987912 0.85116184
-1.0138202 -0.33000576 0.004023075 254 111 0 255 0.9284371 0.913526
-1.0138202 -0.37373227 0.004023075 254 111 0 255 0.9284371 0.85116184
-0.96449155 -0.37373227 0.004023075 254 114 24 255 0.9987912 0.85116184
-0.96449155 -0.33000576 0.004023075 254 112 11 255 0.9987912 0.913526
-1.0196058 -0.33000576 0.004023075 254 111 0 255 0.9201855 0.091336936
-1.0196058 -0.33000576 0.083909094 254 111 0 255 0.9201855 0.20527303
-1.0138202 -0.33000576 0.083909094 254 111 0 255 0.9284371 0.20527303
-1.0196058 -0.37373227 0 254 112 13 255 0.9201855 0.85116184
-1.0196058 -0.33000576 0 254 111 0 255 0.9201855 0.913526
-1.0196058 -0.33000576 0 254 111 0 255 0.9201855 0.085599095
-0.96449155 -0.37373227 0 254 206 193 255 0.9987912 0.085599095
-0.96449155 -0.37373227 0.004023075 254 114 24 255 0.9987912 0.091336936
-1.0196058 -0.33000576 0.083909094 254 111 0 255 0.9201855 0.913526
-1.0196058 -0.37373227 0.083909094 254 111 0 255 0.9201855 0.85116184
-1.0138202 -0.37373227 0.083909094 254 111 0 255 0.9284371 0.85116184
-1.0138202 -0.33000576 0.083909094 254 111 0 255 0.9284371 0.913526
-1.0138202 -0.37373227 0.083909094 254 111 0 255 0.9284371 0.20527303
-1.0196058 -0.37373227 0.083909094 254 111 0 255 0.9201855 0.20527303
-1.0196058 -0.37373227 0.083909094 254 111 0 255 0.85116184 0.20527303
-1.0196058 -0.33000576 0.083909094 254 111 0 255 0.913526 0.20527303
-1.0138202 -0.37373227 0.004023075 254 111 0 255 0.85116184 0.091336936
-1.0138202 -0.33000576 0.004023075 254 111 0 255 0.913526 0.091336936
-1.0138202 -0.33000576 0.083909094 254 111 0 255 0.913526 0.20527303
-1.0138202 -0.37373227 0.083909094 254 111 0 255 0.85116184 0.20527303
-1.6088299 -0.324489 0.563438 254 111 2 255 0.07981449 0.9213942
-1.6088299 -0.3737323 0.563438 254 111 0 255 0.07981449 0.8511617
-1.0179107 -0.324489 0.563438 254 111 0 255 0.92260295 0.9213942
-1.067154 -0.324489 0.563438 254 111 0 255 0.8523705 0.9213942
-1.0179107 -0.9154081 0.563438 254 111 0 255 0.92260295 0.07860571
-1.0179107 -0.8661648 0.563438 254 111 0 255 0.92260295 0.1488381
-1.6088299 -0.9154081 0.563438 254 122 60 255 0.07981449 0.07860571
-1.5595866 -0.9154081 0.563438 254 113 19 255 0.1500468 0.07860571
-1.5595866 -0.324489 0.563438 254 111 0 255 0.1500468 0.9213942
-1.067154 -0.9154081 0.563438 254 111 0 255 0.8523705 0.07860571
-1.6088299 -0.8661648 0.563438 254 111 0 255 0.07981449 0.1488381
-1.0179107 -0.3737323 0.563438 254 111 0 255 0.92260295 0.8511617
-1.6088299 -0.9154081 0.563438 254 122 60 255 0.07860571 0.8891931
4 0 1 2 3
4 4 5 6 7
4 8 9 10 11
4 12 13 14 15
4 16 17 18 19
4 20 21 22 23
4 24 25 26 27
4 28 29 30 31
4 32 33 34 35
4 36 37 38 39
4 40 41 42 43
4 44 12 15 45
4 46 44 45 47
4 11 10 48 49
4 50 51 52 53
4 53 52 37 36
4 54 55 56 57
4 58 53 36 59
4 3 2 60 61
4 42 23 12 44
4 61 60 62 63
4 31 30 64 65
4 7 6 25 24
4 66 67 68 69
4 52 70 71 37
4 41 20 23 42
4 43 42 44 46
4 49 48 72 73
4 23 22 13 12
4 74 75 76 77
4 78 79 80 81
4 82 83 84 85
4 86 87 88 89
4 90 91 92 93
4 94 95 96 97
4 98 99 100 101
4 102 103 104 105
4 106 107 108 109
4 110 111 112 113
4 114 115 116 117
4 118 119 120 121
4 122 123 124 125
4 126 127 128 129
4 130 131 132 133
4 134 135 136 137
4 138 139 140 141
4 49 73 142 143
4 144 145 146 147
4 148 28 149 150
4 0 3 151 152
4 153 154 155 156
4 157 158 159 160
4 31 65 161 162
4 163 164 165 166
4 61 63 167 168
4 169 170 171 172
4 4 7 173 174
4 175 176 177 178
4 8 11 179 180
4 24 27 181 182
4 183 184 185 186
4 187 188 189 190
4 143 142 95 94
4 187 191 192 193
4 150 149 17 16
4 152 151 127 126
4 190 194 195 196
4 147 32 119 155
4 162 161 67 66
4 160 98 103 171
4 168 167 131 130
4 196 197 198 191
4 174 173 55 54
4 166 134 91 185
4 180 179 115 114
4 182 181 107 106
4 140 178 122 111
4 127 151 168 130
4 199 200 201 202
4 17 149 162 66
4 203 204 200 205
4 94 115 179 143
4 206 207 208 204
4 55 173 182 106
4 209 201 208 210
4 211 212 213 214
4 215 216 217 218
4 219 220 221 222
4 223 224 225 226
4 227 228 229 230
4 231 232 233 234
4 220 235 236 237
4 238 239 228 227
4 240 235 220 219
4 241 242 212 211
4 243 244 245 246
4 213 212 247 248
4 217 216 249 250
4 251 252 253 254
4 255 256 257 258
4 259 260 261 262
4 263 264 265 266
4 267 268 269 270
4 271 272 273 274
4 275 276 277 278
4 264 279 280 281
4 282 283 272 271
4 284 279 264 263
4 285 286 256 255
4 287 288 289 290
4 257 256 291 292
4 261 260 293 294
4 295 296 297 298
4 299 300 301 302
4 303 304 305 306
4 307 308 309 310
4 311 312 313 314
4 315 316 317 318
4 319 320 321 322
4 308 323 324 325
4 326 327 316 315
4 328 323 308 307
4 329 330 300 299
4 331 332 333 334
4 301 300 335 336
4 305 304 337 338
4 339 340 341 342
4 343 344 345 346
4 347 348 349 350
4 351 352 353 354
4 355 356 357 358
4 359 360 361 362
4 363 364 365 366
4 352 367 368 369
4 370 371 360 359
4 372 367 352 351
4 373 374 344 343
4 375 376 377 378
4 345 344 379 380
4 349 348 381 382
4 383 384 385 386
4 387 388 389 390
4 391 392 393 394
4 395 396 397 398
4 399 400 401 402
4 403 404 405 406
4 407 408 409 410
4 396 411 412 413
4 414 415 404 403
4 416 411 396 395
4 417 418 388 387
4 419 420 421 422
4 389 388 423 424
4 393 392 425 426
4 427 428 429 430
4 431 432 433 434
4 435 436 437 438
4 439 440 441 442
4 443 444 445 446
4 447 448 449 450
4 451 452 453 454
4 440 455 456 457
4 458 459 448 447
4 460 455 440 439
4 461 462 432 431
4 463 464 465 466
4 433 432 467 468
4 437 436 469 470
4 471 472 473 474
4 475 476 477 478
4 479 480 481 482
4 483 484 485 486
4 487 488 489 490
4 491 492 493 494
4 495 496 497 498
4 484 499 500 501
4 502 503 492 491
4 504 499 484 483
4 505 506 476 475
4 507 508 509 510
4 477 476 511 512
4 481 480 513 514
4 515 516 517 518
4 519 520 521 522
4 523 524 525 526
4 527 528 529 530
4 531 532 533 534
4 535 536 537 538
4 539 540 541 542
4 528 543 544 545
4 546 547 536 535
4 548 543 528 527
4 549 550 520 519
4 551 552 553 554
4 521 520 555 556
4 525 524 557 558
4 559 560 561 562
4 22 21 563 564
4 41 40 565 566
4 46 47 567 568
4 15 14 569 570
4 21 20 571 563
4 20 41 566 571
4 47 45 572 567
4 45 15 570 572
4 14 13 573 569
4 13 22 564 573
4 40 43 574 565
4 43 46 568 574
4 148 575 29 28
