ply
format ascii 1.0
comment Created in Blender version 4.1.0
element vertex 138
property float x
property float y
property float z
property uchar red
property uchar green
property uchar blue
property uchar alpha
property float s
property float t
element face 150
property list uchar uint vertex_indices
end_header
0.8709812 -0.13974556 0.7212356 203 187 164 255 0.625 0
0.8709812 -0.091080725 4.847493e-08 203 187 164 255 0.375 0.25
0.8709812 -0.13974556 4.847493e-08 203 187 164 255 0.375 0
0.8709812 -0.091080725 0.7212356 203 187 164 255 0.625 0.25
0.919646 -0.091080725 4.847493e-08 203 187 164 255 0.375 0.5
0.919646 -0.091080725 0.7212356 203 187 164 255 0.625 0.5
0.919646 -0.13974556 4.847493e-08 203 187 164 255 0.375 0.75
0.919646 -0.13974556 0.7212356 203 187 164 255 0.625 0.75
0.8709812 -0.13974556 4.847493e-08 203 187 164 255 0.375 1
0.8709812 -0.13974556 4.847493e-08 203 187 164 255 0.125 0.75
0.8709812 -0.091080725 4.847493e-08 203 187 164 255 0.125 0.5
0.8709812 -0.091080725 0.7212356 203 187 164 255 0.875 0.5
1.1770068 -0.13974556 0.7212356 203 187 164 255 0.625 0
1.1770068 -0.091080725 1.1920929e-07 203 187 164 255 0.375 0.25
1.1770068 -0.13974556 1.1920929e-07 203 187 164 255 0.375 0
1.1770068 -0.091080725 0.7212356 203 187 164 255 0.625 0.25
1.2256716 -0.091080725 1.1920929e-07 203 187 164 255 0.375 0.5
1.2256716 -0.091080725 0.7212356 203 187 164 255 0.625 0.5
1.2256716 -0.13974556 1.1920929e-07 203 187 164 255 0.375 0.75
1.2256716 -0.13974556 0.7212356 203 187 164 255 0.625 0.75
1.1770068 -0.13974556 1.1920929e-07 203 187 164 255 0.375 1
1.1770068 -0.13974556 1.1920929e-07 203 187 164 255 0.125 0.75
1.1770068 -0.091080725 1.1920929e-07 203 187 164 255 0.125 0.5
1.1770068 -0.091080725 0.7212356 203 187 164 255 0.875 0.5
1.1770068 -0.7663538 0.7212356 203 187 164 255 0.625 0
1.1770068 -0.717689 1.1920929e-07 206 191 170 255 0.375 0.25
1.1770068 -0.7663538 1.1920929e-07 203 187 164 255 0.375 0
1.1770068 -0.717689 0.7212356 213 200 183 255 0.625 0.25
1.2256716 -0.717689 1.1920929e-07 203 188 165 255 0.375 0.5
1.2256716 -0.717689 0.7212356 207 192 171 255 0.625 0.5
1.2256716 -0.7663538 1.1920929e-07 203 187 164 255 0.375 0.75
1.2256716 -0.7663538 0.7212356 203 187 164 255 0.625 0.75
1.1770068 -0.7663538 1.1920929e-07 203 187 164 255 0.375 1
1.1770068 -0.7663538 1.1920929e-07 203 187 164 255 0.125 0.75
1.1770068 -0.717689 1.1920929e-07 206 191 170 255 0.125 0.5
1.1770068 -0.717689 0.7212356 213 200 183 255 0.875 0.5
0.8709813 -0.7663538 0.7212356 203 187 164 255 0.625 0
0.8709813 -0.717689 1.1920929e-07 203 187 164 255 0.375 0.25
0.8709813 -0.7663538 1.1920929e-07 203 187 164 255 0.375 0
0.8709813 -0.717689 0.7212356 203 187 164 255 0.625 0.25
0.91964614 -0.717689 1.1920929e-07 203 187 164 255 0.375 0.5
0.91964614 -0.717689 0.7212356 204 189 166 255 0.625 0.5
0.91964614 -0.7663538 1.1920929e-07 203 187 164 255 0.375 0.75
0.91964614 -0.7663538 0.7212356 203 187 164 255 0.625 0.75
0.8709813 -0.7663538 1.1920929e-07 203 187 164 255 0.375 1
0.8709813 -0.7663538 1.1920929e-07 203 187 164 255 0.125 0.75
0.8709813 -0.717689 1.1920929e-07 203 187 164 255 0.125 0.5
0.8709813 -0.717689 0.7212356 203 187 164 255 0.875 0.5
1.0314535 -0.15886301 0.9977327 203 176 115 255 0.7614288 0.5
1.075113 -0.82064044 0.99773264 203 176 116 255 0.7385712 0.75
1.075113 -0.15886301 0.9977327 203 176 115 255 0.73857117 0.5
1.2920417 -0.020228267 0.8461623 203 176 115 255 0.48795485 0.5
1.2920417 -0.82064044 0.7212356 203 176 115 255 0.375 0.75
1.2920417 -0.020228267 0.7212356 203 176 115 255 0.375 0.5
0.8145248 -0.82064044 0.8461623 203 176 115 255 0.48795485 0
0.8145248 -0.020228267 0.7212356 203 176 115 255 0.375 0.25
0.8145248 -0.82064044 0.7212356 203 176 115 255 0.375 0
0.8145248 -0.82064044 0.7212356 203 176 115 255 0.125 0.75
0.8145248 -0.020228267 0.7212356 203 176 115 255 0.125 0.5
0.91633123 -0.020228267 0.9265995 203 176 115 255 0.56068367 0.3032999
0.881039 -0.8053169 0.8896946 203 176 115 255 0.52731544 0.2848229
0.881039 -0.020228267 0.88969463 203 176 115 255 0.52731544 0.2848229
0.9484385 -0.82064044 0.986195 203 176 115 255 0.80489063 0.75
1.0314535 -0.82064044 0.99773264 203 176 115 255 0.7614287 0.75
0.9484385 -0.15886301 0.9861951 203 176 115 255 0.8048906 0.5
0.8780618 -0.82064044 0.9533387 203 176 115 255 0.875 0.75
0.8780618 -0.020228267 0.9533387 203 176 115 255 0.625 0.25
0.8310376 -0.82064044 0.90416574 203 176 115 255 0.54039973 0
0.8780618 -0.82064044 0.9533387 203 176 115 255 0.625 0
0.8310376 -0.020228267 0.90416574 203 176 115 255 0.54039973 0.25
1.158128 -0.15886301 0.9861951 203 176 115 255 0.6951094 0.5
1.2285047 -0.82064044 0.9533387 204 177 117 255 0.625 0.75
1.2285047 -0.020228267 0.9533387 203 176 115 255 0.625 0.5
1.2755289 -0.020228267 0.90416574 203 176 115 255 0.54039973 0.5
1.2755289 -0.82064044 0.90416574 203 176 115 255 0.54039973 0.75
1.2285047 -0.82064044 0.9533387 204 177 117 255 0.58486044 0.7832643
0.9484385 -0.82064044 0.986195 203 176 115 255 0.6145681 0.92989063
0.8145248 -0.82064044 0.7212356 203 176 115 255 0.375 1
0.86760604 -0.020228267 0.758324 203 176 115 255 0.40853414 0.27779025
0.9691498 -0.15886301 0.95125854 203 176 115 255 0.5829795 0.3309526
1.0314535 -0.15886301 0.9977327 203 176 115 255 0.625 0.36357123
1.0366815 -0.15886301 0.9606443 203 176 115 255 0.59146583 0.36630833
0.9484385 -0.15886301 0.9861951 203 176 115 255 0.6145681 0.32010943
0.8780618 -0.020228267 0.9533387 203 176 115 255 0.58486044 0.28326428
0.86760604 -0.020228267 0.84250945 203 176 115 255 0.48465195 0.27779025
0.8310376 -0.020228267 0.90416574 203 176 115 255 0.54039973 0.25864512
1.1374167 -0.15886301 0.95125854 203 176 115 255 0.5829796 0.41904742
1.075113 -0.15886301 0.9977327 203 176 115 255 0.625 0.38642877
1.158128 -0.15886301 0.9861951 203 176 115 255 0.6145681 0.42989063
1.1902354 -0.020228267 0.9265995 203 176 115 255 0.5606836 0.44670013
1.2285047 -0.020228267 0.9533387 203 176 115 255 0.5848604 0.46673578
1.2255275 -0.020228267 0.88969463 203 176 115 255 0.5273153 0.4651771
1.2755289 -0.020228267 0.90416574 203 176 115 255 0.54039973 0.4913549
1.2389604 -0.020228267 0.84250945 203 176 115 255 0.48465198 0.47220975
0.8145248 -0.020228267 0.8461623 203 176 115 255 0.48795485 0.25
1.0698849 -0.15886301 0.9606443 203 176 115 255 0.5914659 0.3836917
1.2389605 -0.020228267 0.758324 203 176 115 255 0.4085341 0.47220972
0.91633123 -0.8053169 0.9265995 203 176 115 255 0.56068367 0.3032999
1.1374167 -0.8053169 0.95125854 227 215 191 255 0.5829796 0.41904742
1.2389605 -0.8053169 0.75832397 203 176 115 255 0.4085341 0.47220972
1.0366815 -0.8053169 0.9606443 207 182 127 255 0.59146583 0.36630833
1.1902354 -0.8053169 0.9265995 230 219 198 255 0.5606836 0.44670013
0.86760604 -0.8053169 0.84250945 203 176 115 255 0.48465195 0.27779025
1.2389604 -0.8053169 0.84250945 203 176 115 255 0.48465198 0.47220975
0.9691498 -0.8053169 0.95125854 203 176 116 255 0.5829795 0.3309526
1.2255275 -0.8053169 0.88969463 203 177 117 255 0.5273153 0.4651771
1.0698849 -0.8053169 0.9606443 211 188 142 255 0.5914659 0.3836917
0.86760604 -0.8053169 0.75832397 203 176 115 255 0.40853414 0.27779025
0.9163313 -0.23066884 0.83959824 203 75 1 255 0.56068367 0.3032999
1.1374168 -0.23066884 0.8605312 204 79 23 255 0.5829796 0.41904742
1.2389605 -0.23066884 0.75442547 203 76 7 255 0.4085341 0.47220972
0.8709812 -0.13974556 0.7212356 203 187 164 255 0.625 1
0.8709812 -0.13974556 0.7212356 203 187 164 255 0.875 0.75
1.1770068 -0.13974556 0.7212356 203 187 164 255 0.625 1
1.1770068 -0.13974556 0.7212356 203 187 164 255 0.875 0.75
1.1770068 -0.7663538 0.7212356 203 187 164 255 0.625 1
1.1770068 -0.7663538 0.7212356 203 187 164 255 0.875 0.75
0.8709813 -0.7663538 0.7212356 203 187 164 255 0.625 1
0.8709813 -0.7663538 0.7212356 203 187 164 255 0.875 0.75
1.2920417 -0.82064044 0.8461623 203 176 115 255 0.48795485 0.75
0.8780618 -0.020228267 0.9533387 203 176 115 255 0.875 0.5
1.158128 -0.82064044 0.986195 203 176 116 255 0.6951094 0.75
1.2755289 -0.82064044 0.90416574 203 176 115 255 0.54039973 0.7586451
1.158128 -0.82064044 0.986195 203 176 116 255 0.6145681 0.8201094
1.075113 -0.82064044 0.99773264 203 176 116 255 0.625 0.86357117
1.0314535 -0.82064044 0.99773264 203 176 115 255 0.625 0.8864288
0.8780618 -0.82064044 0.9533387 203 176 115 255 0.5848604 0.96673584
0.8310376 -0.82064044 0.90416574 203 176 115 255 0.54039973 0.9913549
0.8145248 -0.82064044 0.8461623 203 176 115 255 0.48795485 1
0.86760616 -0.23066884 0.75442547 203 82 23 255 0.40853414 0.27779025
0.86760616 -0.23066884 0.82905793 203 75 1 255 0.48465195 0.27779025
0.8810391 -0.23066884 0.87088877 203 75 1 255 0.52731544 0.2848229
0.9691499 -0.23066884 0.9254668 203 75 3 255 0.5829795 0.3309526
1.0366817 -0.23066884 0.8627169 203 78 17 255 0.59146583 0.36630833
1.069885 -0.23066884 0.93378747 204 81 24 255 0.5914659 0.3836917
1.1902354 -0.23066884 0.90360594 203 75 1 255 0.5606836 0.44670013
1.2255276 -0.23066884 0.87088877 203 75 1 255 0.5273153 0.4651771
1.2389605 -0.23066884 0.82905793 203 75 1 255 0.48465198 0.47220975
3 0 1 2
3 3 4 1
3 5 6 4
3 7 8 6
3 4 9 10
3 11 7 5
3 12 13 14
3 15 16 13
3 17 18 16
3 19 20 18
3 16 21 22
3 23 19 17
3 24 25 26
3 27 28 25
3 29 30 28
3 31 32 30
3 28 33 34
3 35 31 29
3 36 37 38
3 39 40 37
3 41 42 40
3 43 44 42
3 40 45 46
3 47 43 41
3 48 49 50
3 51 52 53
3 54 55 56
3 53 57 58
3 59 60 61
3 48 62 63
3 64 65 62
3 66 67 68
3 69 54 67
3 49 70 50
3 70 71 72
3 71 73 72
3 74 51 73
3 75 76 77
3 78 53 55
3 79 80 81
3 59 82 79
3 61 83 59
3 84 85 61
3 86 87 88
3 89 88 90
3 91 90 92
3 93 92 51
3 78 94 84
3 95 80 87
3 96 51 53
3 97 98 99
3 95 100 81
3 78 99 96
3 91 101 89
3 61 102 84
3 96 103 93
3 81 104 79
3 93 105 91
3 86 106 95
3 79 97 59
3 84 107 78
3 86 101 98
3 108 109 110
3 0 3 1
3 3 5 4
3 5 7 6
3 7 111 8
3 4 6 9
3 11 112 7
3 12 15 13
3 15 17 16
3 17 19 18
3 19 113 20
3 16 18 21
3 23 114 19
3 24 27 25
3 27 29 28
3 29 31 30
3 31 115 32
3 28 30 33
3 35 116 31
3 36 39 37
3 39 41 40
3 41 43 42
3 43 117 44
3 40 42 45
3 47 118 43
3 48 63 49
3 51 119 52
3 54 94 55
3 53 52 57
3 59 97 60
3 48 64 62
3 64 120 65
3 66 69 67
3 69 94 54
3 49 121 70
3 70 121 71
3 71 74 73
3 74 119 51
3 77 52 119
3 119 122 75
3 75 123 124
3 124 125 76
3 76 126 127
3 127 128 77
3 77 119 75
3 75 124 76
3 76 127 77
3 78 96 53
3 79 82 80
3 59 83 82
3 61 85 83
3 84 94 85
3 86 95 87
3 89 86 88
3 91 89 90
3 93 91 92
3 78 55 94
3 95 81 80
3 96 93 51
3 99 107 102
3 102 60 97
3 97 104 100
3 100 106 98
3 98 101 105
3 105 103 99
3 99 102 97
3 97 100 98
3 98 105 99
3 95 106 100
3 78 107 99
3 91 105 101
3 61 60 102
3 96 99 103
3 81 100 104
3 93 103 105
3 86 98 106
3 79 104 97
3 84 102 107
3 86 89 101
3 110 129 130
3 130 131 108
3 108 132 133
3 133 134 109
3 109 135 136
3 136 137 110
3 110 130 108
3 108 133 109
3 109 136 110
