ply
format ascii 1.0
comment Created in Blender version 4.1.0
element vertex 44
property float x
property float y
property float z
property float s
property float t
element face 13
property list uchar uint vertex_indices
end_header
-2.569264 -2.1550176 0 -1.9546156 -1.7407544
2.4656575 -2.1550176 0 2.9546156 -1.7407544
2.4656575 2.4412303 0 2.9546156 2.7407544
-2.569264 2.4412303 0 -1.9546156 2.7407544
-2.6792238 -2.2649775 0 -2.0618305 0.44842198
2.5756176 -2.2649775 0 3.0618305 0.44842198
2.5756176 -2.2649775 0.09787384 3.0618305 0.551578
-2.6792238 -2.2649775 0.09787384 -2.0618305 0.551578
2.5756176 2.5511904 0 3.0618305 0.44842198
-2.6792238 2.5511904 0 -2.0618305 0.44842198
-2.6792238 2.5511904 0.09787384 -2.0618305 0.551578
2.5756176 2.5511904 0.09787384 3.0618305 0.551578
-2.569264 -2.1550176 0 -1.7407544 0.44842198
-2.569264 2.4412303 0 2.7407544 0.44842198
-2.569264 2.4412303 0.09787384 2.7407544 0.551578
-2.569264 -2.1550176 0.09787384 -1.7407544 0.551578
2.4656575 2.4412303 0 2.7407544 0.44842198
2.4656575 -2.1550176 0 -1.7407544 0.44842198
2.4656575 -2.1550176 0.09787384 -1.7407544 0.551578
2.4656575 2.4412303 0.09787384 2.7407544 0.551578
-2.569264 -2.1550176 0.09787384 -1.9546156 -1.7407544
-2.569264 2.4412303 0.09787384 -1.9546156 2.7407544
-2.6792238 2.5511904 0.09787384 -2.0618305 2.8479693
-2.6792238 -2.2649775 0.09787384 -2.0618305 -1.8479693
2.4656575 -2.1550176 0.09787384 2.9546156 -1.7407544
2.5756176 -2.2649775 0.09787384 3.0618305 -1.8479693
2.4656575 2.4412303 0.09787384 2.9546156 2.7407544
2.5756176 2.5511904 0.09787384 3.0618305 2.8479693
-2.569264 2.4412303 0 -1.9546156 0.44842198
2.4656575 2.4412303 0 2.9546156 0.44842198
2.4656575 2.4412303 0.09787384 2.9546156 0.551578
-2.569264 2.4412303 0.09787384 -1.9546156 0.551578
2.4656575 -2.1550176 0 2.9546156 0.44842198
-2.569264 -2.1550176 0 -1.9546156 0.44842198
-2.569264 -2.1550176 0.09787384 -1.9546156 0.551578
2.4656575 -2.1550176 0.09787384 2.9546156 0.551578
2.5756176 -2.2649775 0 -1.8479693 0.44842198
2.5756176 2.5511904 0 2.8479693 0.44842198
2.5756176 2.5511904 0.09787384 2.8479693 0.551578
2.5756176 -2.2649775 0.09787384 -1.8479693 0.551578
-2.6792238 2.5511904 0 2.8479693 0.44842198
-2.6792238 -2.2649775 0 -1.8479693 0.44842198
-2.6792238 -2.2649775 0.09787384 -1.8479693 0.551578
-2.6792238 2.5511904 0.09787384 2.8479693 0.551578
4 0 1 2 3
4 4 5 6 7
4 8 9 10 11
4 12 13 14 15
4 16 17 18 19
4 20 21 22 23
4 24 20 23 25
4 26 24 25 27
4 21 26 27 22
4 28 29 30 31
4 32 33 34 35
4 36 37 38 39
4 40 41 42 43
