ply
format ascii 1.0
comment Created in Blender version 4.1.0
element vertex 19
property float x
property float y
property float z
property float s
property float t
element face 13
property list uchar uint vertex_indices
end_header
-2.3953726 -2.3953726 0 0.02092546 0.02092546
2.3953726 -2.3953726 0 0.9790745 0.02092546
2.3953726 2.3953726 0 0.97907454 0.97907454
-2.3953726 2.3953726 0 0.02092546 0.9790745
-2.5 -2.5 0 0 0
2.5 -2.5 0 0 0
2.5 -2.5 0.09787384 0 0
-2.5 -2.5 0.09787384 0 0
2.5 2.5 0 0 0
-2.5 2.5 0 0 0
-2.5 2.5 0.09787384 0 0
2.5 2.5 0.09787384 0 0
-2.3953726 2.3953726 0.09787384 0.02092546 0.9790745
-2.3953726 -2.3953726 0.09787384 0.02092546 0.02092546
2.3953726 -2.3953726 0.09787384 0.9790745 0.02092546
2.3953726 2.3953726 0.09787384 0.97907454 0.97907454
-2.5 2.5 0.09787384 0 1
2.5 -2.5 0.09787384 1 0
2.5 2.5 0.09787384 1 1
4 0 1 2 3
4 4 5 6 7
4 8 9 10 11
4 0 3 12 13
4 2 1 14 15
4 13 12 16 7
4 14 13 7 17
4 15 14 17 18
4 12 15 18 16
4 3 2 15 12
4 1 0 13 14
4 5 8 11 6
4 9 4 7 10
