ply
format ascii 1.0
comment Created in Blender version 4.1.0
element vertex 363
property float x
property float y
property float z
property uchar red
property uchar green
property uchar blue
property uchar alpha
property float s
property float t
element face 210
property list uchar uint vertex_indices
end_header
0.12908381 0.93784547 0.5367409 254 111 0 255 0.375 0.25
0.12908381 0.93784547 0.563438 254 111 0 255 0.52541816 0.25
0.17832702 0.93784547 0.563438 254 111 0 255 0.5254181 0.3333333
0.17832702 0.93784547 0.5367409 254 111 0 255 0.375 0.3333333
0.7200029 0.93784547 0.5367409 254 111 0 255 0.375 0.5
0.7200029 0.93784547 0.563438 254 111 0 255 0.52541816 0.5
0.7200029 0.88860214 0.563438 254 111 0 255 0.5254181 0.5833333
0.7200029 0.88860214 0.5367409 254 111 4 255 0.375 0.5833333
0.7200029 0.34692636 0.5367409 254 111 0 255 0.375 0.75
0.7200029 0.34692636 0.563438 254 111 0 255 0.52541816 0.75
0.67075956 0.34692636 0.563438 254 111 0 255 0.5254181 0.8333334
0.67075956 0.34692636 0.5367409 254 111 0 255 0.375 0.8333333
0.17832702 0.39616966 0.5811124 254 111 0 255 0.7916666 0.6666666
0.1467582 0.39616966 0.5811124 254 111 0 255 0.8450899 0.6666666
0.1467582 0.36460075 0.5811124 254 111 0 255 0.8450899 0.72009
0.17832702 0.36460075 0.5811124 254 111 0 255 0.7916666 0.72009
0.12908381 0.34692636 0.22156411 254 111 0 255 0.375 0
0.12908381 0.39616966 0.22156411 254 111 0 255 0.375 0.08333333
0.12908381 0.39616966 0 254 120 51 255 0.375 0.08333333
0.12908381 0.34692636 0 254 112 13 255 0.375 0
0.17832702 0.920171 0.5811124 254 111 0 255 0.7916666 0.52990997
0.1467582 0.920171 0.5811124 254 111 0 255 0.84508985 0.52990997
0.1467582 0.88860214 0.5811124 254 111 0 255 0.84509 0.5833334
0.17832702 0.88860214 0.5811124 254 111 0 255 0.7916666 0.5833333
0.7200029 0.39616966 0.5367409 254 111 0 255 0.375 0.6666666
0.7200029 0.39616966 0.563438 254 111 0 255 0.5254181 0.6666666
0.12908381 0.39616966 0.5367409 254 111 0 255 0.375 0.08333333
0.12908381 0.39616966 0.563438 254 111 0 255 0.5254181 0.08333333
0.12908381 0.88860214 0.563438 254 111 0 255 0.5254181 0.16666666
0.12908381 0.88860214 0.5367409 254 111 0 255 0.375 0.16666666
0.17832702 0.39616966 0.22156411 254 111 0 255 0.20833333 0.6666666
0.17832702 0.34692636 0.22156411 254 111 0 255 0.20833333 0.75
0.17832702 0.34692636 0 254 111 1 255 0.20833333 0.75
0.17832702 0.39616966 0 254 119 47 255 0.20833333 0.6666666
0.17832702 0.39616966 0.5367409 254 111 1 255 0.20833333 0.6666666
0.67075956 0.39616966 0.5367409 254 111 0 255 0.29166666 0.6666666
0.67075956 0.34692636 0.5367409 254 111 0 255 0.29166666 0.75
0.17832702 0.34692636 0.5367409 254 111 0 255 0.20833333 0.75
0.7023285 0.920171 0.5811124 254 111 0 255 0.6549099 0.52990997
0.67075956 0.920171 0.5811124 254 111 0 255 0.70833325 0.52990997
0.67075956 0.88860214 0.5811124 254 111 0 255 0.70833325 0.5833333
0.7023285 0.88860214 0.5811124 254 111 0 255 0.6549099 0.5833333
0.67075956 0.39616966 0.5811124 254 111 0 255 0.70833325 0.6666666
0.17832702 0.36460075 0.5811124 254 111 0 255 0.7916666 0.72009003
0.67075956 0.36460075 0.5811124 254 111 0 255 0.70833325 0.72009
0.7023285 0.39616966 0.5811124 254 111 0 255 0.6549099 0.6666666
0.67075956 0.36460075 0.5811124 254 111 0 255 0.70833325 0.72009003
0.7023285 0.36460075 0.5811124 254 111 0 255 0.65490997 0.72009003
0.17832702 0.34692636 0.563438 254 111 0 255 0.5254181 0.9166666
0.17832702 0.34692636 0.5367409 254 111 0 255 0.375 0.9166666
0.17832702 0.93784547 0.5367409 254 111 0 255 0.20833333 0.5
0.67075956 0.93784547 0.5367409 254 111 0 255 0.29166666 0.5
0.67075956 0.88860214 0.5367409 254 111 0 255 0.29166666 0.5833333
0.17832702 0.88860214 0.5367409 254 127 70 255 0.20833333 0.5833333
0.7200029 0.93784547 0.22156411 254 111 0 255 0.375 0.5
0.7200029 0.88860214 0.22156411 254 120 46 255 0.375 0.5833333
0.7200029 0.88860214 0 254 111 0 255 0.375 0.5833333
0.7200029 0.93784547 0 254 112 13 255 0.375 0.5
0.12908381 0.88860214 0.5367409 254 111 0 255 0.125 0.5833333
0.12908381 0.39616966 0.5367409 254 111 0 255 0.125 0.6666666
0.67075956 0.93784547 0.563438 254 111 0 255 0.5254181 0.4166667
0.67075956 0.93784547 0.5367409 254 111 0 255 0.375 0.41666666
0.12908381 0.88860214 0.22156411 254 111 0 255 0.375 0.16666666
0.12908381 0.93784547 0.22156411 254 111 0 255 0.375 0.25
0.12908381 0.93784547 0 254 111 0 255 0.375 0.25
0.12908381 0.88860214 0 254 111 0 255 0.375 0.16666666
0.12908381 0.34692636 0.563438 254 111 0 255 0.52541816 1
0.12908381 0.34692636 0.5367409 254 111 0 255 0.375 1
0.1467582 0.88860214 0.5811124 254 111 0 255 0.8450899 0.5833333
0.1467582 0.39616966 0.5811124 254 111 0 255 0.84509 0.6666666
0.67075956 0.39616966 0 254 111 0 255 0.29166666 0.6666666
0.7200029 0.39616966 0 254 111 0 255 0.375 0.6666666
0.7200029 0.34692636 0 254 111 1 255 0.375 0.75
0.67075956 0.34692636 0 254 111 0 255 0.29166666 0.75
0.12908381 0.39616966 0 254 120 51 255 0.125 0.6666666
0.12908381 0.34692636 0 254 112 13 255 0.125 0.75
0.12908381 0.93784547 0 254 111 0 255 0.125 0.5
0.17832702 0.93784547 0 254 111 0 255 0.20833333 0.5
0.17832702 0.88860214 0 254 111 10 255 0.20833333 0.5833333
0.12908381 0.88860214 0 254 111 0 255 0.125 0.5833333
0.67075956 0.93784547 0 254 111 3 255 0.29166666 0.5
0.67075956 0.88860214 0 254 111 0 255 0.29166666 0.5833333
0.67075956 0.34692636 0.22156411 254 111 3 255 0.29166666 0.75
0.67075956 0.39616966 0.22156411 254 111 0 255 0.29166666 0.6666666
0.17832702 0.34692636 0.22156411 254 111 0 255 0.375 0.9166666
0.12908381 0.34692636 0.22156411 254 111 0 255 0.375 1
0.12908381 0.34692636 0 254 112 13 255 0.375 1
0.17832702 0.34692636 0 254 111 1 255 0.375 0.9166666
0.17832702 0.88860214 0.22156411 254 111 1 255 0.20833333 0.5833333
0.12908381 0.88860214 0.22156411 254 111 0 255 0.125 0.5833333
0.67075956 0.88860214 0.22156411 254 111 0 255 0.29166666 0.5833333
0.7200029 0.39616966 0.22156411 254 111 1 255 0.375 0.6666666
0.7200029 0.34692636 0.22156411 254 113 21 255 0.375 0.75
0.12908381 0.39616966 0.22156411 254 111 0 255 0.125 0.6666666
0.67075956 0.34692636 0.22156411 254 111 3 255 0.375 0.8333333
0.67075956 0.34692636 0 254 111 0 255 0.375 0.8333333
0.17832702 0.93784547 0.22156411 254 111 0 255 0.20833333 0.5
0.17832702 0.93784547 0.22156411 254 111 0 255 0.375 0.3333333
0.17832702 0.93784547 0 254 111 0 255 0.375 0.3333333
0.67075956 0.93784547 0.22156411 254 111 0 255 0.375 0.41666666
0.67075956 0.93784547 0 254 111 3 255 0.375 0.41666666
0.67075956 0.93784547 0.22156411 254 111 0 255 0.29166666 0.5
0.17832702 0.39616966 0.26837045 254 111 2 255 0.20833333 0.6666666
0.12908381 0.39616966 0.26837045 254 111 0 255 0.125 0.6666666
0.12908381 0.34692636 0.26837045 254 111 0 255 0.375 1
0.17832702 0.34692636 0.26837045 254 111 0 255 0.375 0.9166666
0.17832702 0.34692636 0.26837045 254 111 0 255 0.20833333 0.75
0.12908381 0.34692636 0.5367409 254 111 0 255 0.375 0
0.12908381 0.39616966 0.26837045 254 111 0 255 0.375 0.08333333
0.12908381 0.34692636 0.26837045 254 111 0 255 0.375 0
0.17832702 0.93784547 0.26837045 254 111 0 255 0.375 0.3333333
0.12908381 0.93784547 0.26837045 254 111 0 255 0.375 0.25
0.17832702 0.88860214 0.26837045 254 111 0 255 0.20833333 0.5833333
0.17832702 0.93784547 0.26837045 254 111 0 255 0.20833333 0.5
0.12908381 0.88860214 0.26837045 254 111 0 255 0.125 0.5833333
0.12908381 0.88860214 0.26837045 254 111 0 255 0.375 0.16666666
0.67075956 0.93784547 0.26837045 254 111 0 255 0.29166666 0.5
0.67075956 0.88860214 0.26837045 254 111 0 255 0.29166666 0.5833333
0.7200029 0.93784547 0.26837045 254 111 0 255 0.375 0.5
0.67075956 0.93784547 0.26837045 254 111 0 255 0.375 0.41666666
0.7200029 0.88860214 0.26837045 254 111 1 255 0.375 0.5833333
0.7200029 0.39616966 0.26837045 254 111 0 255 0.375 0.6666666
0.67075956 0.39616966 0.26837045 254 111 0 255 0.29166666 0.6666666
0.67075956 0.34692636 0.26837045 254 111 2 255 0.375 0.8333333
0.7200029 0.34692636 0.26837045 254 112 8 255 0.375 0.75
0.67075956 0.34692636 0.26837045 254 111 2 255 0.29166666 0.75
0.17832702 0.39616966 0.22156411 254 111 0 255 0 0
0.12908381 0.39616966 0.22156411 254 111 0 255 0 0
0.12908381 0.88860214 0.22156411 254 111 0 255 0 0
0.17832702 0.88860214 0.22156411 254 111 1 255 0 0
0.67075956 0.39616966 0.22156411 254 111 0 255 0 0
0.67075956 0.34692636 0.22156411 254 111 3 255 0 0
0.17832702 0.34692636 0.22156411 254 111 0 255 0 0
0.17832702 0.93784547 0.22156411 254 111 0 255 0 0
0.67075956 0.93784547 0.22156411 254 111 0 255 0 0
0.67075956 0.88860214 0.22156411 254 111 0 255 0 0
0.17832702 0.39616966 0.26837045 254 111 2 255 0 0
0.17832702 0.88860214 0.26837045 254 111 0 255 0 0
0.67075956 0.88860214 0.26837045 254 111 0 255 0 0
0.7200029 0.88860214 0.22156411 254 120 46 255 0 0
0.7200029 0.39616966 0.22156411 254 111 1 255 0 0
0.67075956 0.39616966 0.26837045 254 111 0 255 0 0
0.17832702 0.93784547 0.26837045 254 111 0 255 0 0
0.67075956 0.93784547 0.26837045 254 111 0 255 0 0
0.12908381 0.39616966 0.26837045 254 111 0 255 0 0
0.12908381 0.88860214 0.26837045 254 111 0 255 0 0
0.67075956 0.34692636 0.26837045 254 111 2 255 0 0
0.17832702 0.34692636 0.26837045 254 111 0 255 0 0
0.7200029 0.88860214 0.26837045 254 111 1 255 0 0
0.7200029 0.39616966 0.26837045 254 111 0 255 0 0
0.13290566 0.34114078 0 254 116 38 255 0.375 0.23513168
0.13290566 0.34114078 0.004023075 254 111 9 255 0.625 0.23513168
0.13290566 0.34692636 0.004023075 254 111 8 255 0.625 0.25
0.13290566 0.34692636 0 254 121 55 255 0.375 0.25
0.17663218 0.34692636 0.004023075 254 111 0 255 0.625 0.5
0.17663218 0.34692636 0 254 121 52 255 0.375 0.5
0.17663218 0.34114078 0 254 111 0 255 0.375 0.5148683
0.17663218 0.34114078 0.004023075 254 111 0 255 0.625 0.5148683
0.17663218 0.29181215 0.004023075 254 111 0 255 0.625 0.75
0.17663218 0.29181215 0 254 112 13 255 0.375 0.75
0.13290566 0.29181215 0.004023075 254 111 1 255 0.625 1
0.13290566 0.29181215 0 254 112 17 255 0.375 1
0.13290566 0.34114078 0 254 116 38 255 0.125 0.5148683
0.13290566 0.29181215 0 254 112 17 255 0.125 0.75
0.13290566 0.34114078 0.004023075 254 111 9 255 0.875 0.5148683
0.13290566 0.29181215 0.004023075 254 111 1 255 0.875 0.75
0.17663218 0.34692636 0.083909094 254 111 0 255 0.625 0.5
0.17663218 0.34114078 0.083909094 254 111 0 255 0.625 0.5148683
0.13290566 0.34692636 0 254 121 55 255 0.125 0.5
0.13290566 0.29181215 0 254 112 17 255 0.375 0
0.13290566 0.29181215 0.004023075 254 111 1 255 0.625 0
0.13290566 0.34692636 0.083909094 254 111 0 255 0.875 0.5
0.13290566 0.34114078 0.083909094 254 111 0 255 0.875 0.5148683
0.13290566 0.34114078 0.083909094 254 111 0 255 0.625 0.23513168
0.13290566 0.34692636 0.083909094 254 111 0 255 0.625 0.25
0.12329823 0.39616966 0 254 121 52 255 0.375 0.23513168
0.12329823 0.39616966 0.004023075 254 114 30 255 0.625 0.23513168
0.12908384 0.39616966 0.004023075 254 111 0 255 0.625 0.25
0.12908384 0.39616966 0 254 120 51 255 0.375 0.25
0.12908384 0.35244316 0.004023075 254 111 1 255 0.625 0.5
0.12908384 0.35244316 0 254 111 4 255 0.375 0.5
0.12329823 0.35244316 0 254 111 0 255 0.375 0.5148683
0.12329823 0.35244316 0.004023075 254 111 0 255 0.625 0.5148683
0.07396963 0.35244316 0.004023075 254 111 9 255 0.625 0.75
0.07396963 0.35244316 0 254 130 74 255 0.375 0.75
0.07396963 0.39616966 0.004023075 254 113 23 255 0.625 1
0.07396963 0.39616966 0 254 126 67 255 0.375 1
0.12329823 0.39616966 0 254 121 52 255 0.125 0.5148683
0.07396963 0.39616966 0 254 126 67 255 0.125 0.75
0.12329823 0.39616966 0.004023075 254 114 30 255 0.875 0.5148683
0.07396963 0.39616966 0.004023075 254 113 23 255 0.875 0.75
0.12908384 0.35244316 0.083909094 254 111 0 255 0.625 0.5
0.12329823 0.35244316 0.083909094 254 111 0 255 0.625 0.5148683
0.12908384 0.39616966 0 254 120 51 255 0.125 0.5
0.07396963 0.39616966 0 254 126 67 255 0.375 0
0.07396963 0.39616966 0.004023075 254 113 23 255 0.625 0
0.12908384 0.39616966 0.083909094 254 111 0 255 0.875 0.5
0.12329823 0.39616966 0.083909094 254 111 0 255 0.875 0.5148683
0.12329823 0.39616966 0.083909094 254 111 0 255 0.625 0.23513168
0.12908384 0.39616966 0.083909094 254 111 0 255 0.625 0.25
0.7144861 0.34114078 0 254 111 0 255 0.375 0.23513168
0.7144861 0.34114078 0.004023075 254 111 0 255 0.625 0.23513168
0.7144861 0.34692636 0.004023075 254 111 0 255 0.625 0.25
0.7144861 0.34692636 0 254 111 0 255 0.375 0.25
0.67075956 0.34692636 0.004023075 254 111 0 255 0.625 0.5
0.67075956 0.34692636 0 254 111 0 255 0.375 0.5
0.67075956 0.34114078 0 254 111 0 255 0.375 0.5148683
0.67075956 0.34114078 0.004023075 254 111 0 255 0.625 0.5148683
0.67075956 0.29181215 0.004023075 254 111 1 255 0.625 0.75
0.67075956 0.29181215 0 254 111 1 255 0.375 0.75
0.7144861 0.29181215 0.004023075 254 111 1 255 0.625 1
0.7144861 0.29181215 0 254 111 0 255 0.375 1
0.7144861 0.34114078 0 254 111 0 255 0.125 0.5148683
0.7144861 0.29181215 0 254 111 0 255 0.125 0.75
0.7144861 0.34114078 0.004023075 254 111 0 255 0.875 0.5148683
0.7144861 0.29181215 0.004023075 254 111 1 255 0.875 0.75
0.67075956 0.34692636 0.083909094 254 111 0 255 0.625 0.5
0.67075956 0.34114078 0.083909094 254 111 0 255 0.625 0.5148683
0.7144861 0.34692636 0 254 111 0 255 0.125 0.5
0.7144861 0.29181215 0 254 111 0 255 0.375 0
0.7144861 0.29181215 0.004023075 254 111 1 255 0.625 0
0.7144861 0.34692636 0.083909094 254 111 0 255 0.875 0.5
0.7144861 0.34114078 0.083909094 254 111 0 255 0.875 0.5148683
0.7144861 0.34114078 0.083909094 254 111 0 255 0.625 0.23513168
0.7144861 0.34692636 0.083909094 254 111 0 255 0.625 0.25
0.72409356 0.39616966 0 254 111 0 255 0.375 0.23513168
0.72409356 0.39616966 0.004023075 254 112 19 255 0.625 0.23513168
0.7183079 0.39616966 0.004023075 254 111 0 255 0.625 0.25
0.7183079 0.39616966 0 254 111 0 255 0.375 0.25
0.7183079 0.35244316 0.004023075 254 111 0 255 0.625 0.5
0.7183079 0.35244316 0 254 111 0 255 0.375 0.5
0.72409356 0.35244316 0 254 111 0 255 0.375 0.5148683
0.72409356 0.35244316 0.004023075 254 111 0 255 0.625 0.5148683
0.7734221 0.35244316 0.004023075 254 111 0 255 0.625 0.75
0.7734221 0.35244316 0 254 111 0 255 0.375 0.75
0.7734221 0.39616966 0.004023075 254 111 0 255 0.625 1
0.7734221 0.39616966 0 254 111 0 255 0.375 1
0.72409356 0.39616966 0 254 111 0 255 0.125 0.5148683
0.7734221 0.39616966 0 254 111 0 255 0.125 0.75
0.72409356 0.39616966 0.004023075 254 112 19 255 0.875 0.5148683
0.7734221 0.39616966 0.004023075 254 111 0 255 0.875 0.75
0.7183079 0.35244316 0.083909094 254 111 0 255 0.625 0.5
0.72409356 0.35244316 0.083909094 254 111 0 255 0.625 0.5148683
0.7183079 0.39616966 0 254 111 0 255 0.125 0.5
0.7734221 0.39616966 0 254 111 0 255 0.375 0
0.7734221 0.39616966 0.004023075 254 111 0 255 0.625 0
0.7183079 0.39616966 0.083909094 254 111 0 255 0.875 0.5
0.72409356 0.39616966 0.083909094 254 111 0 255 0.875 0.5148683
0.72409356 0.39616966 0.083909094 254 111 0 255 0.625 0.23513168
0.7183079 0.39616966 0.083909094 254 111 0 255 0.625 0.25
0.13290563 0.94363105 0 254 111 0 255 0.375 0.23513168
0.13290563 0.94363105 0.004023075 254 111 0 255 0.625 0.23513168
0.13290563 0.93784547 0.004023075 254 111 0 255 0.625 0.25
0.13290563 0.93784547 0 254 111 0 255 0.375 0.25
0.17663215 0.93784547 0.004023075 254 111 0 255 0.625 0.5
0.17663215 0.93784547 0 254 111 0 255 0.375 0.5
0.17663215 0.94363105 0 254 111 0 255 0.375 0.5148683
0.17663215 0.94363105 0.004023075 254 111 0 255 0.625 0.5148683
0.17663215 0.99295974 0.004023075 254 111 0 255 0.625 0.75
0.17663215 0.99295974 0 254 111 0 255 0.375 0.75
0.13290563 0.99295974 0.004023075 254 164 133 255 0.625 1
0.13290563 0.99295974 0 254 111 0 255 0.375 1
0.13290563 0.94363105 0 254 111 0 255 0.125 0.5148683
0.13290563 0.99295974 0 254 111 0 255 0.125 0.75
0.13290563 0.94363105 0.004023075 254 111 0 255 0.875 0.5148683
0.13290563 0.99295974 0.004023075 254 164 133 255 0.875 0.75
0.17663215 0.93784547 0.083909094 254 111 0 255 0.625 0.5
0.17663215 0.94363105 0.083909094 254 111 0 255 0.625 0.5148683
0.13290563 0.93784547 0 254 111 0 255 0.125 0.5
0.13290563 0.99295974 0 254 111 0 255 0.375 0
0.13290563 0.99295974 0.004023075 254 164 133 255 0.625 0
0.13290563 0.93784547 0.083909094 254 111 0 255 0.875 0.5
0.13290563 0.94363105 0.083909094 254 117 41 255 0.875 0.5148683
0.13290563 0.94363105 0.083909094 254 117 41 255 0.625 0.23513168
0.13290563 0.93784547 0.083909094 254 111 0 255 0.625 0.25
0.1232982 0.8886022 0 254 111 0 255 0.375 0.23513168
0.1232982 0.8886022 0.004023075 254 111 0 255 0.625 0.23513168
0.12908381 0.8886022 0.004023075 254 111 0 255 0.625 0.25
0.12908381 0.8886022 0 254 111 0 255 0.375 0.25
0.12908381 0.9323287 0.004023075 254 111 0 255 0.625 0.5
0.12908381 0.9323287 0 254 111 0 255 0.375 0.5
0.1232982 0.9323287 0 254 111 0 255 0.375 0.5148683
0.1232982 0.9323287 0.004023075 254 113 24 255 0.625 0.5148683
0.0739696 0.9323287 0.004023075 254 129 73 255 0.625 0.75
0.0739696 0.9323287 0 254 111 0 255 0.375 0.75
0.0739696 0.8886022 0.004023075 254 111 0 255 0.625 1
0.0739696 0.8886022 0 254 111 0 255 0.375 1
0.1232982 0.8886022 0 254 111 0 255 0.125 0.5148683
0.0739696 0.8886022 0 254 111 0 255 0.125 0.75
0.1232982 0.8886022 0.004023075 254 111 0 255 0.875 0.5148683
0.0739696 0.8886022 0.004023075 254 111 0 255 0.875 0.75
0.12908381 0.9323287 0.083909094 254 111 0 255 0.625 0.5
0.1232982 0.9323287 0.083909094 254 115 32 255 0.625 0.5148683
0.12908381 0.8886022 0 254 111 0 255 0.125 0.5
0.0739696 0.8886022 0 254 111 0 255 0.375 0
0.0739696 0.8886022 0.004023075 254 111 0 255 0.625 0
0.12908381 0.8886022 0.083909094 254 111 0 255 0.875 0.5
0.1232982 0.8886022 0.083909094 254 111 0 255 0.875 0.5148683
0.1232982 0.8886022 0.083909094 254 111 0 255 0.625 0.23513168
0.12908381 0.8886022 0.083909094 254 111 0 255 0.625 0.25
0.7144861 0.94363105 0 254 111 1 255 0.375 0.23513168
0.7144861 0.94363105 0.004023075 254 111 0 255 0.625 0.23513168
0.7144861 0.93784547 0.004023075 254 111 3 255 0.625 0.25
0.7144861 0.93784547 0 254 111 4 255 0.375 0.25
0.67075956 0.93784547 0.004023075 254 111 0 255 0.625 0.5
0.67075956 0.93784547 0 254 111 0 255 0.375 0.5
0.67075956 0.94363105 0 254 111 0 255 0.375 0.5148683
0.67075956 0.94363105 0.004023075 254 111 0 255 0.625 0.5148683
0.67075956 0.99295974 0.004023075 254 111 0 255 0.625 0.75
0.67075956 0.99295974 0 254 111 2 255 0.375 0.75
0.7144861 0.99295974 0.004023075 254 113 22 255 0.625 1
0.7144861 0.99295974 0 254 113 22 255 0.375 1
0.7144861 0.94363105 0 254 111 1 255 0.125 0.5148683
0.7144861 0.99295974 0 254 113 22 255 0.125 0.75
0.7144861 0.94363105 0.004023075 254 111 0 255 0.875 0.5148683
0.7144861 0.99295974 0.004023075 254 113 22 255 0.875 0.75
0.67075956 0.93784547 0.083909094 254 111 0 255 0.625 0.5
0.67075956 0.94363105 0.083909094 254 111 0 255 0.625 0.5148683
0.7144861 0.93784547 0 254 111 4 255 0.125 0.5
0.7144861 0.99295974 0 254 113 22 255 0.375 0
0.7144861 0.99295974 0.004023075 254 113 22 255 0.625 0
0.7144861 0.93784547 0.083909094 254 111 0 255 0.875 0.5
0.7144861 0.94363105 0.083909094 254 112 9 255 0.875 0.5148683
0.7144861 0.94363105 0.083909094 254 112 9 255 0.625 0.23513168
0.7144861 0.93784547 0.083909094 254 111 0 255 0.625 0.25
0.72409356 0.8886022 0 254 111 0 255 0.375 0.23513168
0.72409356 0.8886022 0.004023075 254 111 0 255 0.625 0.23513168
0.7183079 0.8886022 0.004023075 254 111 0 255 0.625 0.25
0.7183079 0.8886022 0 254 111 0 255 0.375 0.25
0.7183079 0.9323287 0.004023075 254 111 0 255 0.625 0.5
0.7183079 0.9323287 0 254 111 3 255 0.375 0.5
0.72409356 0.9323287 0 254 112 13 255 0.375 0.5148683
0.72409356 0.9323287 0.004023075 254 112 13 255 0.625 0.5148683
0.7734221 0.9323287 0.004023075 254 113 23 255 0.625 0.75
0.7734221 0.9323287 0 254 113 23 255 0.375 0.75
0.7734221 0.8886022 0.004023075 254 111 1 255 0.625 1
0.7734221 0.8886022 0 254 111 6 255 0.375 1
0.72409356 0.8886022 0 254 111 0 255 0.125 0.5148683
0.7734221 0.8886022 0 254 111 6 255 0.125 0.75
0.72409356 0.8886022 0.004023075 254 111 0 255 0.875 0.5148683
0.7734221 0.8886022 0.004023075 254 111 1 255 0.875 0.75
0.7183079 0.9323287 0.083909094 254 111 0 255 0.625 0.5
0.72409356 0.9323287 0.083909094 254 112 10 255 0.625 0.5148683
0.7183079 0.8886022 0 254 111 0 255 0.125 0.5
0.7734221 0.8886022 0 254 111 6 255 0.375 0
0.7734221 0.8886022 0.004023075 254 111 1 255 0.625 0
0.7183079 0.8886022 0.083909094 254 111 0 255 0.875 0.5
0.72409356 0.8886022 0.083909094 254 111 0 255 0.875 0.5148683
0.72409356 0.8886022 0.083909094 254 111 0 255 0.625 0.23513168
0.7183079 0.8886022 0.083909094 254 111 0 255 0.625 0.25
0.1467582 0.88860214 0.5811124 254 111 0 255 0.625 0.16666667
0.1467582 0.920171 0.5811124 254 111 0 255 0.625 0.22009003
0.67075956 0.920171 0.5811124 254 111 0 255 0.625 0.41666666
0.7023285 0.920171 0.5811124 254 111 0 255 0.625 0.47009003
0.17832702 0.36460075 0.5811124 254 111 0 255 0.625 0.9166666
0.1467582 0.36460075 0.5811124 254 111 0 255 0.625 0.97009
0.1467582 0.920171 0.5811124 254 111 0 255 0.625 0.27991003
0.17832702 0.920171 0.5811124 254 111 0 255 0.625 0.3333333
0.7023285 0.36460075 0.5811124 254 111 0 255 0.625 0.77990997
0.67075956 0.36460075 0.5811124 254 111 0 255 0.625 0.8333333
0.1467582 0.36460075 0.5811124 254 111 0 255 0.625 0.029909976
0.1467582 0.39616966 0.5811124 254 111 0 255 0.625 0.083333336
0.12908381 0.34692636 0.563438 254 111 0 255 0.52541816 0
4 0 1 2 3
4 4 5 6 7
4 8 9 10 11
4 12 13 14 15
4 16 17 18 19
4 20 21 22 23
4 24 25 9 8
4 26 27 28 29
4 30 31 32 33
4 34 35 36 37
4 38 39 40 41
4 42 12 43 44
4 45 42 46 47
4 11 10 48 49
4 50 51 52 53
4 53 52 35 34
4 54 55 56 57
4 58 53 34 59
4 3 2 60 61
4 40 23 12 42
4 61 60 5 4
4 29 28 1 0
4 7 6 25 24
4 62 63 64 65
4 52 7 24 35
4 39 20 23 40
4 41 40 42 45
4 49 48 66 67
4 23 68 69 12
4 70 71 72 73
4 74 33 32 75
4 76 77 78 79
4 80 57 56 81
4 82 83 70 73
4 84 85 86 87
4 88 89 79 78
4 55 90 81 56
4 91 92 72 71
4 93 30 33 74
4 92 94 95 72
4 96 88 78 77
4 83 91 71 70
4 63 97 98 64
4 99 54 57 100
4 90 101 80 81
4 59 34 102 103
4 49 67 104 105
4 34 37 106 102
4 107 26 108 109
4 0 3 110 111
4 50 53 112 113
4 53 58 114 112
4 29 0 111 115
4 52 51 116 117
4 61 4 118 119
4 7 52 117 120
4 4 7 120 118
4 35 24 121 122
4 8 11 123 124
4 24 8 124 121
4 36 35 122 125
4 126 127 128 129
4 105 104 85 84
4 126 130 131 132
4 109 108 17 16
4 111 110 97 63
4 129 133 134 135
4 136 126 129 137
4 115 111 63 62
4 137 129 135 138
4 119 118 54 99
4 135 139 140 130
4 118 120 55 54
4 138 135 130 141
4 124 123 94 92
4 121 124 92 91
4 136 141 130 126
4 133 142 143 134
4 142 137 138 143
4 127 144 145 128
4 144 136 137 145
4 132 131 146 147
4 147 146 141 136
4 139 148 149 140
4 148 138 141 149
4 150 151 152 153
4 153 152 154 155
4 156 157 158 159
4 159 158 160 161
4 162 156 159 163
4 157 164 165 158
4 157 154 166 167
4 168 155 156 162
4 155 154 157 156
4 169 170 151 150
4 166 171 172 167
4 152 151 173 174
4 154 152 174 166
4 164 157 167 172
4 175 176 177 178
4 178 177 179 180
4 181 182 183 184
4 184 183 185 186
4 187 181 184 188
4 182 189 190 183
4 182 179 191 192
4 193 180 181 187
4 180 179 182 181
4 194 195 176 175
4 191 196 197 192
4 177 176 198 199
4 179 177 199 191
4 189 182 192 197
4 200 201 202 203
4 203 202 204 205
4 206 207 208 209
4 209 208 210 211
4 212 206 209 213
4 207 214 215 208
4 207 204 216 217
4 218 205 206 212
4 205 204 207 206
4 219 220 201 200
4 216 221 222 217
4 202 201 223 224
4 204 202 224 216
4 214 207 217 222
4 225 226 227 228
4 228 227 229 230
4 231 232 233 234
4 234 233 235 236
4 237 231 234 238
4 232 239 240 233
4 232 229 241 242
4 243 230 231 237
4 230 229 232 231
4 244 245 226 225
4 241 246 247 242
4 227 226 248 249
4 229 227 249 241
4 239 232 242 247
4 250 251 252 253
4 253 252 254 255
4 256 257 258 259
4 259 258 260 261
4 262 256 259 263
4 257 264 265 258
4 257 254 266 267
4 268 255 256 262
4 255 254 257 256
4 269 270 251 250
4 266 271 272 267
4 252 251 273 274
4 254 252 274 266
4 264 257 267 272
4 275 276 277 278
4 278 277 279 280
4 281 282 283 284
4 284 283 285 286
4 287 281 284 288
4 282 289 290 283
4 282 279 291 292
4 293 280 281 287
4 280 279 282 281
4 294 295 276 275
4 291 296 297 292
4 277 276 298 299
4 279 277 299 291
4 289 282 292 297
4 300 301 302 303
4 303 302 304 305
4 306 307 308 309
4 309 308 310 311
4 312 306 309 313
4 307 314 315 308
4 307 304 316 317
4 318 305 306 312
4 305 304 307 306
4 319 320 301 300
4 316 321 322 317
4 302 301 323 324
4 304 302 324 316
4 314 307 317 322
4 325 326 327 328
4 328 327 329 330
4 331 332 333 334
4 334 333 335 336
4 337 331 334 338
4 332 339 340 333
4 332 329 341 342
4 343 330 331 337
4 330 329 332 331
4 344 345 326 325
4 341 346 347 342
4 327 326 348 349
4 329 327 349 341
4 339 332 342 347
4 350 351 1 28
4 352 353 5 60
4 45 47 9 25
4 354 355 66 48
4 356 357 2 1
4 357 352 60 2
4 358 359 10 9
4 359 354 48 10
4 360 361 27 362
4 361 350 28 27
4 38 41 6 5
4 41 45 25 6
4 107 362 27 26
