ply
format ascii 1.0
comment Created in Blender version 4.1.0
element vertex 259
property float x
property float y
property float z
property uchar red
property uchar green
property uchar blue
property uchar alpha
property float s
property float t
element face 348
property list uchar uint vertex_indices
end_header
0.49773368 0.015780196 0.6717565 141 111 92 255 1 1
0.5231663 0.0132752955 0.006712109 141 111 91 255 0.96875 0.5
0.49773368 0.015780196 0.006712109 141 111 91 255 1 0.5
0.5231663 0.0132752955 0.6717565 141 111 91 255 0.96875 1
0.5476216 0.005856864 0.006712109 141 111 91 255 0.9375 0.5
0.5476216 0.005856864 0.6717565 141 111 91 255 0.9375 1
0.57015973 -0.0061900094 0.006712109 141 111 91 255 0.90625 0.5
0.57015973 -0.0061900094 0.6717565 142 112 93 255 0.90625 1
0.58991456 -0.022402376 0.006712109 141 111 91 255 0.875 0.5
0.58991456 -0.022402376 0.6717565 141 111 91 255 0.875 1
0.6061269 -0.042157203 0.006712109 141 111 91 255 0.84375 0.5
0.6061269 -0.042157203 0.6717565 141 111 91 255 0.84375 1
0.6181738 -0.06469531 0.006712109 141 111 91 255 0.8125 0.5
0.6181738 -0.06469531 0.6717565 141 111 91 255 0.8125 1
0.62559223 -0.08915061 0.006712109 141 111 91 255 0.78125 0.5
0.62559223 -0.08915061 0.6717565 141 111 91 255 0.78125 1
0.6280971 -0.114583254 0.006712109 141 111 91 255 0.75 0.5
0.6280971 -0.114583254 0.6717565 141 111 91 255 0.75 1
0.62559223 -0.1400159 0.006712109 141 111 91 255 0.71875 0.5
0.62559223 -0.1400159 0.6717565 141 111 91 255 0.71875 1
0.6181738 -0.1644712 0.006712109 141 111 91 255 0.6875 0.5
0.6181738 -0.1644712 0.6717565 141 111 91 255 0.6875 1
0.6061269 -0.1870093 0.006712109 141 111 91 255 0.65625 0.5
0.6061269 -0.1870093 0.6717565 141 111 91 255 0.65625 1
0.58991456 -0.20676413 0.006712109 141 111 91 255 0.625 0.5
0.58991456 -0.20676413 0.6717565 141 111 91 255 0.625 1
0.57015973 -0.2229765 0.006712109 141 111 91 255 0.59375 0.5
0.57015973 -0.2229765 0.6717565 141 111 91 255 0.59375 1
0.5476216 -0.23502338 0.006712109 141 111 91 255 0.5625 0.5
0.5476216 -0.23502338 0.6717565 141 111 91 255 0.5625 1
0.5231663 -0.2424418 0.006712109 141 111 91 255 0.53125 0.5
0.5231663 -0.2424418 0.6717565 141 111 91 255 0.53125 1
0.49773368 -0.2449467 0.006712109 141 111 91 255 0.5 0.5
0.49773368 -0.2449467 0.6717565 141 111 91 255 0.5 1
0.47230104 -0.2424418 0.006712109 141 111 91 255 0.46875 0.5
0.47230104 -0.2424418 0.6717565 141 111 91 255 0.46875 1
0.44784576 -0.23502338 0.006712109 141 111 91 255 0.4375 0.5
0.44784576 -0.23502338 0.6717565 141 111 91 255 0.4375 1
0.42530763 -0.2229765 0.006712109 141 111 91 255 0.40625 0.5
0.42530763 -0.2229765 0.6717565 141 111 91 255 0.40625 1
0.4055528 -0.20676413 0.006712109 141 111 91 255 0.375 0.5
0.4055528 -0.20676413 0.6717565 141 111 91 255 0.375 1
0.38934043 -0.1870093 0.006712109 141 111 91 255 0.34375 0.5
0.38934043 -0.1870093 0.6717565 141 111 91 255 0.34375 1
0.37729356 -0.1644712 0.006712109 141 111 91 255 0.3125 0.5
0.37729356 -0.1644712 0.6717565 141 111 91 255 0.3125 1
0.36987513 -0.1400159 0.006712109 141 111 91 255 0.28125 0.5
0.36987513 -0.1400159 0.6717565 141 111 91 255 0.28125 1
0.36737025 -0.114583254 0.006712109 141 111 91 255 0.25 0.5
0.36737025 -0.114583254 0.6717565 141 111 91 255 0.25 1
0.36987513 -0.08915061 0.006712109 141 111 91 255 0.21875 0.5
0.36987513 -0.08915061 0.6717565 141 111 91 255 0.21875 1
0.37729356 -0.06469531 0.006712109 141 111 91 255 0.1875 0.5
0.37729356 -0.06469531 0.6717565 141 111 91 255 0.1875 1
0.38934043 -0.042157203 0.006712109 141 111 91 255 0.15625 0.5
0.38934043 -0.042157203 0.6717565 141 111 91 255 0.15625 1
0.4055528 -0.022402376 0.006712109 141 111 91 255 0.125 0.5
0.4055528 -0.022402376 0.6717565 141 111 91 255 0.125 1
0.42530763 -0.0061900094 0.006712109 141 111 91 255 0.09375 0.5
0.42530763 -0.0061900094 0.6717565 141 111 91 255 0.09375 1
0.44784576 0.005856864 0.006712109 141 111 91 255 0.0625 0.5
0.41165072 -0.17210206 0.6717565 142 113 93 255 0.091520645 0.14410749
0.4020834 -0.15420291 0.074439235 254 254 254 255 0.07390718 0.17705996
0.4020834 -0.15420291 0.6717565 141 111 91 255 0.07390718 0.17705996
0.44784576 0.005856864 0.6717565 141 111 91 255 0.0625 1
0.47230104 0.0132752955 0.006712109 141 111 91 255 0.03125 0.5
0.47230104 0.0132752955 0.6717565 141 111 91 255 0.03125 1
0.49773368 0.015780196 0.006712109 141 111 91 255 0 0.5
0.5231663 -0.2424418 0.006712109 141 111 91 255 0.79682165 0.014611542
0.36987513 -0.1400159 0.006712109 141 111 91 255 0.51461154 0.20317832
0.47230104 0.0132752955 0.006712109 141 111 91 255 0.70317835 0.48538846
0.5179316 -0.013041459 0.6717565 145 119 102 255 0.2871845 0.43693912
0.49773368 0.015780196 0.6717565 141 111 92 255 0.25 0.49
0.49773368 -0.011052139 0.6717565 141 111 91 255 0.24999996 0.44060144
0.53735334 -0.018932976 0.6717565 142 112 92 255 0.32294002 0.4260928
0.5231663 0.0132752955 0.6717565 141 111 91 255 0.29682168 0.48538846
0.5552525 -0.028500281 0.6717565 141 111 91 255 0.3558925 0.40847933
0.5476216 0.005856864 0.6717565 141 111 91 255 0.34184402 0.47173107
0.5709412 -0.041375697 0.6717565 141 111 91 255 0.3847756 0.38477564
0.57015973 -0.0061900094 0.6717565 142 112 93 255 0.38333684 0.4495527
0.6061269 -0.042157203 0.6717565 141 111 91 255 0.4495527 0.38333684
0.58991456 -0.022402376 0.6717565 141 111 91 255 0.41970563 0.41970563
0.59338397 -0.07496361 0.6717565 142 113 93 255 0.42609283 0.32294002
0.58381665 -0.057064448 0.6717565 141 111 91 255 0.40847936 0.35589254
0.59927547 -0.09438534 0.6717565 148 121 106 255 0.43693915 0.28718454
0.6181738 -0.06469531 0.6717565 141 111 91 255 0.47173107 0.34184402
0.6280971 -0.114583254 0.6717565 141 111 91 255 0.49 0.25
0.62559223 -0.08915061 0.6717565 141 111 91 255 0.48538846 0.29682168
0.59927547 -0.13478117 0.6717565 141 111 91 255 0.43693915 0.21281552
0.6012648 -0.114583254 0.6717565 141 111 92 255 0.44060147 0.24999999
0.59338397 -0.15420291 0.6717565 141 111 91 255 0.42609283 0.17705996
0.62559223 -0.1400159 0.6717565 141 111 91 255 0.48538846 0.20317832
0.58381665 -0.17210206 0.6717565 141 111 91 255 0.40847936 0.1441075
0.6181738 -0.1644712 0.6717565 141 111 91 255 0.47173107 0.15815598
0.5709412 -0.18779081 0.6717565 141 111 91 255 0.38477567 0.11522441
0.6061269 -0.1870093 0.6717565 141 111 91 255 0.4495527 0.11666314
0.57015973 -0.2229765 0.6717565 141 111 91 255 0.38333684 0.0504473
0.58991456 -0.20676413 0.6717565 141 111 91 255 0.41970563 0.080294386
0.53735334 -0.21023354 0.6717565 143 114 94 255 0.32294005 0.0739072
0.5552525 -0.20066622 0.6717565 141 111 91 255 0.3558926 0.09152068
0.5179316 -0.21612504 0.6717565 142 113 94 255 0.2871845 0.06306086
0.5476216 -0.23502338 0.6717565 141 111 91 255 0.34184402 0.028268918
0.49773368 -0.2449467 0.6717565 141 111 91 255 0.25 0.010000005
0.5231663 -0.2424418 0.6717565 141 111 91 255 0.29682168 0.014611542
0.47753575 -0.21612504 0.6717565 142 112 93 255 0.2128155 0.063060865
0.49773368 -0.21811438 0.6717565 143 114 95 255 0.24999999 0.05939851
0.45811403 -0.21023354 0.6717565 141 111 91 255 0.17705996 0.07390718
0.47230104 -0.2424418 0.6717565 141 111 91 255 0.20317832 0.014611542
0.44021487 -0.20066622 0.6717565 141 111 91 255 0.14410749 0.091520645
0.44784576 -0.23502338 0.6717565 141 111 91 255 0.15815598 0.028268918
0.42452613 -0.18779081 0.6717565 141 111 91 255 0.1152244 0.115224384
0.42530763 -0.2229765 0.6717565 141 111 91 255 0.11666314 0.0504473
0.38934043 -0.1870093 0.6717565 141 111 91 255 0.0504473 0.11666314
0.4055528 -0.20676413 0.6717565 141 111 91 255 0.080294386 0.080294386
0.3961919 -0.13478117 0.6717565 142 112 93 255 0.063060865 0.21281552
0.37729356 -0.1644712 0.6717565 141 111 91 255 0.028268918 0.15815598
0.36737025 -0.114583254 0.6717565 141 111 91 255 0.010000005 0.25
0.36987513 -0.1400159 0.6717565 141 111 91 255 0.014611542 0.20317832
0.3961919 -0.09438534 0.6717565 141 111 91 255 0.063060865 0.2871845
0.39420256 -0.114583254 0.6717565 141 111 91 255 0.0593985 0.24999991
0.4020834 -0.07496361 0.6717565 141 111 91 255 0.07390718 0.32294002
0.36987513 -0.08915061 0.6717565 141 111 91 255 0.014611542 0.29682168
0.41165072 -0.057064448 0.6717565 141 111 91 255 0.091520645 0.35589245
0.37729356 -0.06469531 0.6717565 141 111 91 255 0.028268918 0.34184402
0.42452613 -0.041375697 0.6717565 141 111 91 255 0.11522438 0.38477558
0.38934043 -0.042157203 0.6717565 141 111 91 255 0.0504473 0.38333684
0.42530763 -0.0061900094 0.6717565 141 111 91 255 0.11666314 0.4495527
0.4055528 -0.022402376 0.6717565 141 111 91 255 0.080294386 0.41970563
0.45811403 -0.018932976 0.6717565 141 111 91 255 0.17705995 0.4260929
0.44021487 -0.028500281 0.6717565 142 112 92 255 0.14410749 0.4084793
0.47753575 -0.013041459 0.6717565 141 111 91 255 0.2128155 0.4369391
0.44784576 0.005856864 0.6717565 141 111 91 255 0.15815598 0.47173107
0.47230104 0.0132752955 0.6717565 141 111 91 255 0.20317832 0.48538846
0.45811403 -0.21023354 0.074439235 254 254 254 255 0.17705996 0.07390718
0.59338397 -0.15420291 0.074439235 254 254 254 255 0.42609283 0.17705996
0.53735334 -0.018932976 0.074439235 254 254 254 255 0.32294002 0.4260928
0.59927547 -0.13478117 0.074439235 254 254 254 255 0.43693915 0.21281552
0.3961919 -0.13478117 0.074439235 254 254 254 255 0.063060865 0.21281552
0.39420256 -0.114583254 0.074439235 254 254 254 255 0.0593985 0.24999991
0.58381665 -0.17210206 0.074439235 254 254 254 255 0.40847936 0.1441075
0.3961919 -0.09438534 0.074439235 254 254 254 255 0.063060865 0.2871845
0.57094127 -0.18779081 0.074439235 254 254 254 255 0.38477567 0.11522441
0.4020834 -0.07496361 0.074439235 254 254 254 255 0.07390718 0.32294002
0.5552525 -0.20066622 0.074439235 254 254 254 255 0.3558926 0.09152068
0.41165072 -0.057064448 0.074439235 254 254 254 255 0.091520645 0.35589245
0.53735334 -0.21023354 0.074439235 254 254 254 255 0.32294005 0.0739072
0.49773368 -0.011052139 0.074439235 254 254 254 255 0.24999996 0.44060144
0.5179316 -0.013041459 0.074439235 254 254 254 255 0.2871845 0.43693912
0.42452613 -0.041375697 0.074439235 254 254 254 255 0.11522438 0.38477558
0.5179316 -0.21612504 0.074439235 254 254 254 255 0.2871845 0.06306086
0.44021487 -0.028500281 0.074439235 254 254 254 255 0.14410749 0.4084793
0.49773368 -0.21811438 0.074439235 254 254 254 255 0.24999999 0.05939851
0.5552525 -0.028500281 0.074439235 254 254 254 255 0.3558925 0.40847933
0.45811403 -0.018932976 0.074439235 254 254 254 255 0.17705995 0.4260929
0.47753578 -0.21612504 0.074439235 254 254 254 255 0.2128155 0.063060865
0.57094127 -0.041375697 0.074439235 254 254 254 255 0.3847756 0.38477564
0.47753578 -0.013041459 0.074439235 254 254 254 255 0.2128155 0.4369391
0.58381665 -0.057064448 0.074439235 254 254 254 255 0.40847936 0.35589254
0.44021487 -0.20066622 0.074439235 254 254 254 255 0.14410749 0.091520645
0.59338397 -0.07496361 0.074439235 254 254 254 255 0.42609283 0.32294002
0.42452613 -0.18779081 0.074439235 254 254 254 255 0.1152244 0.115224384
0.59927547 -0.09438534 0.074439235 254 254 254 255 0.43693915 0.28718454
0.41165072 -0.17210206 0.074439235 254 254 254 255 0.091520645 0.14410749
0.60126483 -0.114583254 0.074439235 254 254 254 255 0.44060147 0.24999999
0.58061 -0.045426123 0.6355026 61 180 254 255 0 0
0.57668793 -0.035242476 0.6436746 65 182 254 255 0 0
0.563822 -0.022511035 0.6403316 60 180 254 255 0 0
0.5972787 -0.071596555 0.64243233 60 180 254 255 0 0
0.58650947 -0.05431324 0.6456431 60 180 254 255 0 0
0.6079738 -0.093198024 0.6424216 60 180 254 255 0 0
0.6022373 -0.07144354 0.641839 60 180 254 255 0 0
0.6023156 -0.09854752 0.64075005 60 180 254 255 0 0
0.61644316 -0.12114084 0.642665 60 180 254 255 0 0
0.5647618 -0.039456226 0.6441598 60 180 254 255 0 0
0.540887 -0.010528721 0.6414536 60 180 254 255 0 0
0.58299035 -0.085065715 0.64501107 60 180 254 255 0 0
0.59139884 -0.12598523 0.6465496 60 180 254 255 0 0
0.6105097 -0.13720547 0.63844717 60 180 254 255 0 0
0.539969 -0.04526013 0.6389829 60 180 254 255 0 0
0.51644325 -0.008001737 0.6405233 70 183 254 255 0 0
0.563307 -0.089311 0.64487076 60 180 254 255 0 0
0.57820076 -0.13545549 0.64125896 60 180 254 255 0 0
0.6012206 -0.15680446 0.64396703 60 180 254 255 0 0
0.5202598 -0.043989897 0.64282644 60 180 254 255 0 0
0.4988321 -0.000961937 0.6420852 65 181 254 255 0 0
0.53648585 -0.09416416 0.64104724 60 180 254 255 0 0
0.55674887 -0.14580023 0.6419326 60 180 254 255 0 0
0.58581537 -0.17528069 0.6351445 60 180 254 255 0 0
0.49769905 -0.053087447 0.64037013 60 180 254 255 0 0
0.4774475 -0.011460155 0.64252937 60 180 254 255 0 0
0.5164808 -0.107423544 0.6457794 60 180 254 255 0 0
0.54119796 -0.15894975 0.64120734 60 180 254 255 0 0
0.58014375 -0.19130653 0.642421 61 180 254 255 0 0
0.47059608 -0.06087787 0.63949513 60 180 254 255 0 0
0.45877853 -0.014606923 0.63967395 60 180 254 255 0 0
0.49778917 -0.11449685 0.6433207 60 180 254 255 0 0
0.5189564 -0.17174672 0.6369808 60 180 254 255 0 0
0.5567862 -0.21244082 0.6421553 61 180 254 255 0 0
0.43097472 -0.015425622 0.6405884 87 186 254 255 0 0
0.4535914 -0.07326388 0.63907444 60 180 254 255 0 0
0.4814418 -0.124200985 0.6438457 60 180 254 255 0 0
0.49812478 -0.18147272 0.6385107 60 180 254 255 0 0
0.53705275 -0.21720946 0.6430149 60 180 254 255 0 0
0.413359 -0.031201094 0.6381426 60 180 254 255 0 0
0.4345286 -0.08183248 0.6413164 60 180 254 255 0 0
0.4814976 -0.17975247 0.64761794 60 180 254 255 0 0
0.45765036 -0.13709398 0.6431283 60 180 254 255 0 0
0.49812338 -0.23269308 0.6377313 60 180 254 255 0 0
0.399382 -0.05420791 0.64615417 60 180 254 255 0 0
0.4225429 -0.08967915 0.6457635 60 180 254 255 0 0
0.4596886 -0.18518198 0.640172 60 180 254 255 0 0
0.43400317 -0.13873 0.64710236 60 180 254 255 0 0
0.47628322 -0.22954346 0.6358546 60 180 254 255 0 0
0.3900355 -0.07041647 0.63592625 60 180 254 255 0 0
0.40367386 -0.10881711 0.64131427 60 180 254 255 0 0
0.4382164 -0.18491746 0.63553846 60 180 254 255 0 0
0.42138296 -0.15164366 0.63639283 60 180 254 255 0 0
0.4532104 -0.2156959 0.63947845 60 180 254 255 0 0
0.38627693 -0.0919383 0.64140403 60 180 254 255 0 0
0.39607975 -0.12624538 0.63502085 60 180 254 255 0 0
0.4240911 -0.18539628 0.64308083 60 180 254 255 0 0
0.4092285 -0.15408105 0.6404431 60 180 254 255 0 0
0.43602914 -0.20939834 0.6413963 60 180 254 255 0 0
0.386244 -0.11608603 0.6460277 60 180 254 255 0 0
0.38695574 -0.13528755 0.6406528 60 180 254 255 0 0
0.40448275 -0.17751606 0.64035153 60 180 254 255 0 0
0.39549452 -0.16579495 0.6402451 60 180 254 255 0 0
0.41780585 -0.19427547 0.64115465 60 180 254 255 0 0
0.49773368 0.015780196 0.6717565 141 111 92 255 0 1
0.49773368 0.015780196 0.006712109 141 111 91 255 0.75 0.49
0.5231663 0.0132752955 0.006712109 141 111 91 255 0.79682165 0.48538846
0.5476216 0.005856864 0.006712109 141 111 91 255 0.841844 0.47173107
0.57015973 -0.0061900094 0.006712109 141 111 91 255 0.88333684 0.4495527
0.58991456 -0.022402376 0.006712109 141 111 91 255 0.9197056 0.41970563
0.6061269 -0.042157203 0.006712109 141 111 91 255 0.9495527 0.38333684
0.6181738 -0.06469531 0.006712109 141 111 91 255 0.97173107 0.34184402
0.62559223 -0.08915061 0.006712109 141 111 91 255 0.98538846 0.29682168
0.6280971 -0.114583254 0.006712109 141 111 91 255 0.99 0.25
0.62559223 -0.1400159 0.006712109 141 111 91 255 0.98538846 0.20317832
0.6181738 -0.1644712 0.006712109 141 111 91 255 0.97173107 0.15815598
0.6061269 -0.1870093 0.006712109 141 111 91 255 0.9495527 0.11666314
0.58991456 -0.20676413 0.006712109 141 111 91 255 0.9197056 0.080294386
0.57015973 -0.2229765 0.006712109 141 111 91 255 0.88333684 0.0504473
0.5476216 -0.23502338 0.006712109 141 111 91 255 0.841844 0.028268918
0.49773368 -0.2449467 0.006712109 141 111 91 255 0.75 0.010000005
0.47230104 -0.2424418 0.006712109 141 111 91 255 0.70317835 0.014611542
0.44784576 -0.23502338 0.006712109 141 111 91 255 0.658156 0.028268918
0.42530763 -0.2229765 0.006712109 141 111 91 255 0.61666316 0.0504473
0.4055528 -0.20676413 0.006712109 141 111 91 255 0.5802944 0.080294386
0.38934043 -0.1870093 0.006712109 141 111 91 255 0.5504473 0.11666314
0.37729356 -0.1644712 0.006712109 141 111 91 255 0.52826893 0.15815598
0.36737025 -0.114583254 0.006712109 141 111 91 255 0.51 0.25
0.36987513 -0.08915061 0.006712109 141 111 91 255 0.51461154 0.29682168
0.37729356 -0.06469531 0.006712109 141 111 91 255 0.52826893 0.34184402
0.38934043 -0.042157203 0.006712109 141 111 91 255 0.5504473 0.38333684
0.4055528 -0.022402376 0.006712109 141 111 91 255 0.5802944 0.41970563
0.42530763 -0.0061900094 0.006712109 141 111 91 255 0.61666316 0.4495527
0.44784576 0.005856864 0.006712109 141 111 91 255 0.658156 0.47173107
0.52296245 -0.22678748 0.64242077 60 180 254 255 0 0
3 0 1 2
3 3 4 1
3 5 6 4
3 7 8 6
3 9 10 8
3 11 12 10
3 13 14 12
3 15 16 14
3 17 18 16
3 19 20 18
3 21 22 20
3 23 24 22
3 25 26 24
3 27 28 26
3 29 30 28
3 31 32 30
3 33 34 32
3 35 36 34
3 37 38 36
3 39 40 38
3 41 42 40
3 43 44 42
3 45 46 44
3 47 48 46
3 49 50 48
3 51 52 50
3 53 54 52
3 55 56 54
3 57 58 56
3 59 60 58
3 61 62 63
3 64 65 60
3 66 67 65
3 68 69 70
3 71 72 73
3 74 75 71
3 76 77 74
3 78 79 76
3 78 80 81
3 82 80 83
3 84 85 82
3 84 86 87
3 88 86 89
3 90 91 88
3 92 93 90
3 94 95 92
3 94 96 97
3 98 96 99
3 100 101 98
3 100 102 103
3 104 102 105
3 106 107 104
3 108 109 106
3 110 111 108
3 110 112 113
3 63 112 61
3 114 115 63
3 114 116 117
3 118 116 119
3 120 121 118
3 122 123 120
3 124 125 122
3 124 126 127
3 128 126 129
3 130 131 128
3 130 72 132
3 133 134 135
3 89 136 88
3 63 137 114
3 88 134 90
3 114 138 119
3 90 139 92
3 119 140 118
3 92 141 94
3 118 142 120
3 94 143 99
3 120 144 122
3 99 145 98
3 71 146 147
3 122 148 124
3 98 149 100
3 71 135 74
3 124 150 129
3 105 149 151
3 74 152 76
3 129 153 128
3 105 154 104
3 76 155 78
3 130 153 156
3 104 133 106
3 78 157 83
3 130 146 73
3 106 158 108
3 83 159 82
3 108 160 110
3 82 161 84
3 110 162 61
3 84 163 89
3 164 165 166
3 167 168 164
3 167 169 170
3 171 172 169
3 173 166 174
3 175 164 173
3 175 171 167
3 176 177 171
3 178 174 179
3 180 173 178
3 180 176 175
3 181 182 176
3 183 179 184
3 185 178 183
3 186 180 185
3 186 187 181
3 188 184 189
3 188 185 183
3 190 186 185
3 191 192 186
3 193 189 194
3 195 188 193
3 195 191 190
3 196 197 191
3 198 193 194
3 199 195 193
3 200 196 195
3 201 202 196
3 203 199 198
3 204 200 199
3 205 200 206
3 207 201 205
3 208 204 203
3 209 206 204
3 210 206 211
3 212 205 210
3 213 209 208
3 214 211 209
3 215 211 216
3 217 210 215
3 218 214 213
3 219 216 214
3 220 216 221
3 222 215 220
3 223 219 218
3 224 221 219
3 225 221 226
3 227 220 225
3 0 3 1
3 3 5 4
3 5 7 6
3 7 9 8
3 9 11 10
3 11 13 12
3 13 15 14
3 15 17 16
3 17 19 18
3 19 21 20
3 21 23 22
3 23 25 24
3 25 27 26
3 27 29 28
3 29 31 30
3 31 33 32
3 33 35 34
3 35 37 36
3 37 39 38
3 39 41 40
3 41 43 42
3 43 45 44
3 45 47 46
3 47 49 48
3 49 51 50
3 51 53 52
3 53 55 54
3 55 57 56
3 57 59 58
3 59 64 60
3 61 162 62
3 64 66 65
3 66 228 67
3 70 229 230
3 230 231 232
3 232 233 234
3 234 235 236
3 236 237 238
3 238 239 240
3 240 241 242
3 242 243 68
3 68 244 245
3 245 246 247
3 247 248 249
3 249 250 69
3 69 251 252
3 252 253 254
3 254 255 256
3 256 257 70
3 70 230 232
3 232 234 236
3 236 238 240
3 240 242 68
3 68 245 247
3 247 249 69
3 69 252 254
3 254 256 70
3 70 232 236
3 236 240 68
3 68 247 69
3 69 254 70
3 70 236 68
3 71 75 72
3 74 77 75
3 76 79 77
3 78 81 79
3 78 83 80
3 82 85 80
3 84 87 85
3 84 89 86
3 88 91 86
3 90 93 91
3 92 95 93
3 94 97 95
3 94 99 96
3 98 101 96
3 100 103 101
3 100 105 102
3 104 107 102
3 106 109 107
3 108 111 109
3 110 113 111
3 110 61 112
3 63 115 112
3 114 117 115
3 114 119 116
3 118 121 116
3 120 123 121
3 122 125 123
3 124 127 125
3 124 129 126
3 128 131 126
3 130 132 131
3 130 73 72
3 135 147 146
3 146 156 153
3 153 150 148
3 148 144 142
3 142 140 138
3 138 137 62
3 62 162 160
3 160 158 133
3 133 154 151
3 151 149 145
3 145 143 141
3 141 139 134
3 134 136 163
3 163 161 159
3 159 157 155
3 155 152 135
3 135 146 153
3 153 148 142
3 142 138 62
3 62 160 133
3 133 151 145
3 145 141 134
3 134 163 159
3 159 155 135
3 135 153 142
3 142 62 133
3 133 145 134
3 134 159 135
3 135 142 133
3 89 163 136
3 63 62 137
3 88 136 134
3 114 137 138
3 90 134 139
3 119 138 140
3 92 139 141
3 118 140 142
3 94 141 143
3 120 142 144
3 99 143 145
3 71 73 146
3 122 144 148
3 98 145 149
3 71 147 135
3 124 148 150
3 105 100 149
3 74 135 152
3 129 150 153
3 105 151 154
3 76 152 155
3 130 128 153
3 104 154 133
3 78 155 157
3 130 156 146
3 106 133 158
3 83 157 159
3 108 158 160
3 82 159 161
3 110 160 162
3 84 161 163
3 164 168 165
3 167 170 168
3 167 171 169
3 171 177 172
3 173 164 166
3 175 167 164
3 175 176 171
3 176 182 177
3 178 173 174
3 180 175 173
3 180 181 176
3 181 187 182
3 183 178 179
3 185 180 178
3 186 181 180
3 186 192 187
3 188 183 184
3 188 190 185
3 190 191 186
3 191 197 192
3 193 188 189
3 195 190 188
3 195 196 191
3 196 202 197
3 198 199 193
3 199 200 195
3 200 201 196
3 201 258 202
3 203 204 199
3 204 206 200
3 205 201 200
3 207 258 201
3 208 209 204
3 209 211 206
3 210 205 206
3 212 207 205
3 213 214 209
3 214 216 211
3 215 210 211
3 217 212 210
3 218 219 214
3 219 221 216
3 220 215 216
3 222 217 215
3 223 224 219
3 224 226 221
3 225 220 221
3 227 222 220
